<?xml version="1.0" encoding="utf-8"?>
<!-- Generator: Adobe Illustrator 24.1.1, SVG Export Plug-In . SVG Version: 6.00 Build 0)  -->
<svg version="1.1" id="Слой_1" xmlns="http://www.w3.org/2000/svg" xmlns:xlink="http://www.w3.org/1999/xlink" x="0px" y="0px"
	 viewBox="0 0 64.2 59.3" style="enable-background:new 0 0 64.2 59.3;" xml:space="preserve">
<style type="text/css">
	.st0{fill:none;stroke:#E1E9F1;stroke-width:0.5698;stroke-linecap:round;stroke-linejoin:round;stroke-miterlimit:10;}
	.st1{fill:none;stroke:#E1E9F1;stroke-miterlimit:10;}
</style>
<g>
	<path class="st0" d="M20.1,36.1v-5V10.2h27.3v2.2"/>
	<path class="st0" d="M20.1,46.6v5.5v2.7h27.3v-31v-6.6"/>
	<path class="st0" d="M0,54.9h63.3"/>
	<path class="st0" d="M35.2,59.2h29"/>
	<path class="st0" d="M24.8,59.2h3.7h1.7"/>
	<path class="st0" d="M5.4,59.2h11.3h5.5"/>
	<path class="st0" d="M28.1,8.6v1.6h11.3V8.7"/>
	<path class="st0" d="M39.4,7.2V5.3H28.1v1.4"/>
	<path class="st0" d="M33.8,5.3V0.2"/>
	<path class="st0" d="M28.3,23.5h-3.6v4.3h3.6V23.5z"/>
	<path class="st0" d="M31.9,23.5h3.6v4.3h-3.6v-2.4"/>
	<path class="st0" d="M42.8,23.5h-3.6v4.3h3.6V23.5z"/>
	<path class="st0" d="M28.3,31.3h-3.6v4.3h3.6V31.3z"/>
	<path class="st0" d="M35.5,31.3h-3.6v4.3h3.6V31.3z"/>
	<path class="st0" d="M42.8,35.6h-3.6v-4.3h3.6v2.6"/>
	<path class="st0" d="M24.7,39.1h3.6v4.3h-3.6v-2.4"/>
	<path class="st0" d="M42.8,39.1h-3.6v4.3h3.6V39.1z"/>
	<path class="st0" d="M24.7,15.6h3.6V20h-3.6v-2.6"/>
	<path class="st0" d="M35.5,15.6h-3.6V20h3.6V15.6z"/>
	<path class="st0" d="M42.8,20h-3.6v-4.3h3.6v2.8"/>
	<path class="st0" d="M58.2,53.5v1.4"/>
	<path class="st0" d="M26.5,47.9v4.9"/>
	<path class="st0" d="M6.4,41.8v12.9 M18.4,41.8v12.9"/>
	<path class="st0" d="M41,47.9v4.9"/>
	<path class="st0" d="M26.1,11.8V14"/>
	<path class="st0" d="M40.7,11.8V14"/>
	<path class="st1" d="M35.5,41l-1.8-1.8c0,0-0.1,0-0.1,0L31.8,41l-1.7,1.7c0,0,0,0,0,0V55c0,0,0,0.1,0.1,0.1h7c0,0,0.1,0,0.1-0.1
		V42.8c0,0,0,0,0,0L35.5,41z"/>
	<path class="st0" d="M54.6,54.3v-3.7H51v3.8"/>
	<path class="st0" d="M54.6,27.8v-1.1h-5.2v0.8"/>
	<path class="st0" d="M52,26.7v-3"/>
	<path class="st0" d="M50.3,37.4h-1.7v2.5h1.7V37.4z"/>
	<path class="st0" d="M52,37.4h1.7v2.5H52v-1.5"/>
	<path class="st0" d="M57,37.4h-1.7v2.5H57V37.4z"/>
	<path class="st0" d="M50.3,42h-1.7v2.5h1.7V42z"/>
	<path class="st0" d="M53.6,42H52v2.5h1.7V42z"/>
	<path class="st0" d="M57,44.5h-1.7V42H57v1.5"/>
	<path class="st0" d="M48.6,46.6h1.7v2.5h-1.7v-1.4"/>
	<path class="st0" d="M53.6,46.6H52v2.5h1.7V46.6z"/>
	<path class="st0" d="M57,46.6h-1.7v2.5H57V46.6z"/>
	<path class="st0" d="M48.6,32.8h1.7v2.5h-1.7v-1.5"/>
	<path class="st0" d="M53.6,32.8H52v2.5h1.7V32.8z"/>
	<path class="st0" d="M57,35.3h-1.7v-2.5H57v1.6"/>
	<path class="st0" d="M47.5,30.1h10.8v22.1"/>
	<path class="st0" d="M56.2,51.1V54"/>
	<path class="st0" d="M49.4,51.1V54"/>
	<path class="st0" d="M16.6,31.5h1.9v3.8h-1.9V31.5z"/>
	<path class="st0" d="M13.8,31.5H11v3.8h2.8v-2.2"/>
	<path class="st0" d="M6.3,31.5h2.8v3.8H6.3V31.5z"/>
	<path class="st0" d="M18.5,23.9h-1.9v3.8h1.9v-2.3"/>
	<path class="st0" d="M11,23.9h2.8v3.8H11V23.9z"/>
	<path class="st0" d="M6.3,27.7h2.8v-3.8H6.3v2.4"/>
	<path class="st0" d="M19.9,19.2H4.4v31"/>
	<path class="st0" d="M15.4,54.7V43.2h-6v11.5"/>
</g>
</svg>
