<?xml version="1.0" encoding="utf-8"?>
<!-- Generator: Adobe Illustrator 24.1.1, SVG Export Plug-In . SVG Version: 6.00 Build 0)  -->
<svg version="1.1" id="Слой_1" xmlns="http://www.w3.org/2000/svg" xmlns:xlink="http://www.w3.org/1999/xlink" x="0px" y="0px"
	 viewBox="0 0 24.3 30" style="enable-background:new 0 0 24.3 30;" xml:space="preserve">
<style type="text/css">
	.st0{fill:#FFFFFF;}
</style>
<g id="location_icon" transform="translate(0 0)">
	<path id="Path_301" class="st0" d="M17.5,1.6c-4.5-3-10.5-1.8-13.5,2.7c-2,3-2.2,6.9-0.4,10L12.2,30l8.5-15.6
		C23.1,10,21.8,4.4,17.5,1.6z M19,13.4L12.2,26L5.3,13.4C3.3,9.7,4.6,4.9,8.4,2.9c2.5-1.4,5.7-1.3,8.1,0.4C19.9,5.5,21,9.9,19,13.4z
		"/>
	<path id="Path_302" class="st0" d="M12.2,4C9.5,4,7.4,6.1,7.4,8.8s2.1,4.8,4.8,4.8S17,11.4,17,8.8C16.9,6.1,14.8,4,12.2,4z
		 M12.2,11.7c-1.6,0-2.9-1.3-2.9-2.9s1.3-2.9,2.9-2.9S15,7.2,15,8.8l0,0C15,10.4,13.7,11.7,12.2,11.7L12.2,11.7z"/>
</g>
</svg>
