<?xml version="1.0" encoding="iso-8859-1"?>
<!-- Generator: Adobe Illustrator 24.1.1, SVG Export Plug-In . SVG Version: 6.00 Build 0)  -->
<svg version="1.1" id="&#x421;&#x43B;&#x43E;&#x439;_1"
	 xmlns="http://www.w3.org/2000/svg" xmlns:xlink="http://www.w3.org/1999/xlink" x="0px" y="0px" viewBox="0 0 24.341 30"
	 style="enable-background:new 0 0 24.341 30;" xml:space="preserve">
<g id="_x31_">
	<g id="background">
		<path style="fill:#FFFFFF;" d="M12.085,29.987c-2.777-0.414-5.092-1.362-6.881-2.82c-1.683-1.372-2.966-3.248-3.812-5.577
			C0.443,19.4,0,16.849,0,13.563V2.358l0.415-0.121C0.729,2.145,8.135,0,12.17,0s11.442,2.145,11.755,2.237l0.415,0.121v11.205
			c0,3.286-0.443,5.838-1.393,8.027c-0.846,2.329-2.129,4.205-3.812,5.577c-1.789,1.458-4.104,2.407-6.881,2.82L12.17,30
			L12.085,29.987z"/>
		<path style="fill:#1C3459;" d="M12.17,0.577C8.171,0.577,0.577,2.79,0.577,2.79s0,7.244,0,10.772c0,2.668,0.278,5.347,1.352,7.814
			c1.576,4.351,4.718,7.218,10.241,8.04c5.524-0.823,8.666-3.689,10.241-8.04c1.074-2.467,1.352-5.146,1.352-7.814
			c0-3.528,0-10.772,0-10.772S16.17,0.577,12.17,0.577z"/>
		<g>
			<path style="fill:none;stroke:#F5DD0A;stroke-width:0.3053;stroke-miterlimit:10;" d="M12.17,28.687
				c-2.529-0.391-4.54-1.218-6.146-2.527c-1.524-1.242-2.642-2.887-3.418-5.03l-0.008-0.021L2.59,21.089
				c-0.882-2.024-1.292-4.416-1.292-7.526V3.336c1.767-0.49,7.615-2.038,10.872-2.038s9.105,1.549,10.872,2.038v10.226
				c0,3.11-0.411,5.501-1.292,7.526l-0.009,0.021l-0.008,0.021c-0.776,2.143-1.894,3.788-3.418,5.03
				C16.71,27.469,14.699,28.296,12.17,28.687z"/>
		</g>
	</g>
	<g id="text">
		<g>
			<g>
				<path style="fill:#F5DD0A;" d="M4.544,5.246L4.416,5.311L4.242,4.969C4.223,4.932,4.204,4.891,4.184,4.844L4.181,4.846
					c0.011,0.038,0.018,0.067,0.021,0.085l0.065,0.457L4.161,5.441L3.829,5.126C3.82,5.118,3.8,5.095,3.77,5.056L3.767,5.058
					c0.032,0.055,0.059,0.103,0.081,0.146l0.161,0.316L3.893,5.578L3.601,5.007l0.188-0.096l0.29,0.279
					c0.023,0.022,0.044,0.046,0.062,0.071L4.143,5.26C4.134,5.225,4.128,5.193,4.124,5.166L4.068,4.769l0.184-0.094L4.544,5.246z"/>
				<path style="fill:#F5DD0A;" d="M5.02,5.029l-0.35,0.16L4.403,4.606L4.74,4.452l0.049,0.107L4.584,4.653l0.059,0.13l0.191-0.087
					l0.049,0.106L4.692,4.889l0.061,0.133l0.218-0.1L5.02,5.029z"/>
				<path style="fill:#F5DD0A;" d="M5.892,4.667L5.725,4.735L5.446,4.551C5.438,4.546,5.429,4.538,5.417,4.527L5.416,4.528
					l0.117,0.286L5.401,4.867L5.285,4.581L5.283,4.582c0,0.007-0.002,0.02-0.004,0.036L5.208,4.946L5.042,5.013l0.1-0.402
					L4.817,4.413l0.159-0.065l0.266,0.181C5.254,4.537,5.263,4.544,5.27,4.55l0.002-0.001L5.159,4.273L5.29,4.22l0.112,0.276
					l0.002-0.001c0.001-0.01,0.002-0.021,0.005-0.034l0.064-0.316L5.633,4.08L5.539,4.45L5.892,4.667z"/>
				<path style="fill:#F5DD0A;" d="M6.014,4.393l0.074,0.208L5.953,4.65L5.737,4.046L5.95,3.97c0.152-0.054,0.251-0.017,0.297,0.111
					c0.022,0.061,0.017,0.117-0.013,0.171C6.204,4.304,6.152,4.344,6.079,4.37L6.014,4.393z M5.91,4.102L5.978,4.29l0.053-0.019
					C6.103,4.245,6.128,4.2,6.106,4.137c-0.022-0.062-0.069-0.08-0.142-0.054L5.91,4.102z"/>
				<path style="fill:#F5DD0A;" d="M6.844,4.347L6.478,4.465l-0.197-0.61l0.352-0.114l0.036,0.112L6.454,3.922l0.044,0.136
					l0.2-0.064l0.036,0.111l-0.2,0.064l0.045,0.14l0.228-0.074L6.844,4.347z"/>
				<path style="fill:#F5DD0A;" d="M7.159,3.71L6.931,3.777l0.147,0.501L6.939,4.318l-0.18-0.615l0.367-0.107L7.159,3.71z"/>
				<path style="fill:#F5DD0A;" d="M7.943,4.045L7.811,4.079L7.724,3.738c-0.01-0.039-0.017-0.073-0.021-0.102L7.7,3.637
					C7.697,3.65,7.691,3.67,7.682,3.696L7.525,4.152L7.384,4.188L7.225,3.567l0.132-0.034l0.088,0.344
					c0.011,0.042,0.017,0.071,0.018,0.086l0.002,0c0.001-0.004,0.007-0.023,0.019-0.059l0.15-0.441l0.15-0.038L7.943,4.045z"/>
				<path style="fill:#F5DD0A;" d="M8.348,3.968C8.258,3.987,8.179,3.973,8.11,3.927C8.04,3.88,7.996,3.81,7.976,3.717
					c-0.021-0.099-0.01-0.185,0.035-0.259c0.044-0.074,0.114-0.12,0.209-0.141c0.089-0.019,0.168-0.005,0.236,0.041
					c0.068,0.047,0.112,0.118,0.132,0.214c0.021,0.099,0.009,0.184-0.035,0.257C8.508,3.902,8.44,3.948,8.348,3.968z M8.241,3.439
					C8.192,3.45,8.156,3.477,8.135,3.52C8.114,3.564,8.11,3.616,8.123,3.677c0.013,0.062,0.038,0.108,0.075,0.138
					c0.037,0.03,0.079,0.04,0.126,0.03c0.049-0.01,0.084-0.036,0.105-0.077C8.45,3.726,8.454,3.675,8.441,3.612
					C8.427,3.547,8.402,3.5,8.367,3.469C8.331,3.439,8.289,3.429,8.241,3.439z"/>
				<path style="fill:#F5DD0A;" d="M9.301,3.777L9.158,3.802L9.114,3.545L8.852,3.59l0.045,0.257L8.754,3.872L8.645,3.24
					l0.142-0.025l0.044,0.252l0.262-0.045L9.049,3.17l0.143-0.025L9.301,3.777z"/>
				<path style="fill:#F5DD0A;" d="M9.998,3.681L9.842,3.702L9.778,3.567L9.552,3.597L9.526,3.745L9.371,3.766l0.145-0.667
					l0.17-0.023L9.998,3.681z M9.73,3.461L9.633,3.257C9.626,3.242,9.619,3.223,9.614,3.201l-0.004,0
					c0.001,0.019,0,0.038-0.004,0.057l-0.04,0.225L9.73,3.461z"/>
				<path style="fill:#F5DD0A;" d="M10.626,3.619l-0.144,0.014l-0.051-0.518l-0.128,0.012c-0.011,0.248-0.028,0.4-0.053,0.456
					c-0.025,0.056-0.068,0.088-0.129,0.094c-0.026,0.003-0.052,0.001-0.079-0.005l-0.011-0.115c0.018,0.004,0.033,0.006,0.045,0.005
					C10.09,3.56,10.1,3.555,10.109,3.547c0.009-0.009,0.017-0.03,0.025-0.064c0.008-0.034,0.016-0.093,0.024-0.176
					c0.008-0.083,0.014-0.179,0.018-0.288l0.388-0.038L10.626,3.619z"/>
				<path style="fill:#F5DD0A;" d="M10.768,3.608l-0.041-0.64l0.144-0.009l0.015,0.24l0.094-0.006
					c0.154-0.01,0.236,0.048,0.244,0.174c0.004,0.067-0.013,0.12-0.053,0.16c-0.039,0.04-0.097,0.062-0.173,0.067L10.768,3.608z
					 M10.893,3.307l0.012,0.182l0.065-0.004c0.073-0.005,0.107-0.038,0.103-0.099c-0.004-0.059-0.041-0.087-0.112-0.082
					L10.893,3.307z"/>
				<path style="fill:#F5DD0A;" d="M11.886,3.557l-0.145,0.004L11.734,3.3l-0.265,0.008l0.008,0.261l-0.144,0.004l-0.019-0.641
					l0.144-0.004l0.008,0.256l0.265-0.008L11.722,2.92l0.145-0.004L11.886,3.557z"/>
				<path style="fill:#F5DD0A;" d="M12.589,3.561l-0.157-0.002l-0.044-0.143L12.16,3.413l-0.047,0.142l-0.156-0.002l0.242-0.638
					l0.171,0.002L12.589,3.561z M12.356,3.304L12.29,3.088c-0.005-0.016-0.008-0.035-0.01-0.058l-0.004,0
					c-0.002,0.019-0.006,0.037-0.012,0.056l-0.073,0.216L12.356,3.304z"/>
				<path style="fill:#F5DD0A;" d="M13.105,3.579L12.96,3.573l0.01-0.249l-0.038-0.001c-0.036-0.001-0.066,0.025-0.091,0.078
					l-0.076,0.165l-0.167-0.006l0.097-0.188c0.027-0.053,0.062-0.085,0.103-0.097l0-0.002c-0.094-0.026-0.139-0.082-0.135-0.169
					c0.002-0.057,0.025-0.102,0.068-0.132c0.043-0.031,0.102-0.045,0.178-0.042l0.221,0.008L13.105,3.579z M12.973,3.216
					l0.007-0.174L12.92,3.04c-0.068-0.003-0.103,0.024-0.105,0.081c-0.001,0.027,0.007,0.049,0.025,0.066
					c0.018,0.017,0.042,0.026,0.073,0.027L12.973,3.216z"/>
				<path style="fill:#F5DD0A;" d="M13.766,3.636c-0.091-0.008-0.163-0.044-0.216-0.109s-0.075-0.145-0.066-0.24
					c0.009-0.101,0.045-0.18,0.109-0.237c0.064-0.057,0.144-0.082,0.241-0.074c0.091,0.008,0.162,0.044,0.213,0.109
					c0.051,0.065,0.072,0.146,0.064,0.243c-0.009,0.1-0.045,0.179-0.108,0.235C13.939,3.62,13.86,3.644,13.766,3.636z M13.818,3.1
					c-0.05-0.004-0.092,0.011-0.125,0.046c-0.033,0.035-0.052,0.084-0.057,0.147c-0.005,0.063,0.005,0.115,0.032,0.154
					c0.027,0.039,0.064,0.061,0.112,0.065c0.05,0.004,0.091-0.01,0.123-0.043c0.032-0.033,0.051-0.082,0.056-0.145
					c0.006-0.066-0.004-0.119-0.029-0.158C13.904,3.126,13.867,3.104,13.818,3.1z"/>
				<path style="fill:#F5DD0A;" d="M14.183,3.664l0.077-0.637l0.41,0.05l-0.014,0.118l-0.266-0.032l-0.017,0.139l0.123,0.015
					c0.068,0.008,0.119,0.03,0.152,0.066c0.033,0.036,0.047,0.082,0.04,0.137c-0.008,0.064-0.034,0.111-0.077,0.142
					c-0.044,0.031-0.102,0.041-0.174,0.033L14.183,3.664z M14.36,3.406l-0.021,0.171l0.084,0.01
					c0.067,0.008,0.104-0.017,0.111-0.076c0.007-0.055-0.022-0.087-0.086-0.095L14.36,3.406z"/>
				<path style="fill:#F5DD0A;" d="M15.591,4.047l-0.117-0.019l0.028-0.173l-0.742-0.123L14.865,3.1l0.143,0.024l-0.084,0.511
					l0.171,0.028l0.084-0.511l0.142,0.023l-0.084,0.511l0.171,0.028l0.084-0.511l0.143,0.024L15.55,3.738l0.09,0.015L15.591,4.047z"
					/>
				<path style="fill:#F5DD0A;" d="M16.094,3.977l-0.377-0.078l0.13-0.628l0.362,0.075l-0.024,0.115l-0.221-0.046l-0.029,0.14
					l0.205,0.043l-0.024,0.115L15.912,3.67l-0.03,0.144l0.235,0.049L16.094,3.977z"/>
				<path style="fill:#F5DD0A;" d="M16.641,4.082c-0.051,0.011-0.113,0.008-0.186-0.009c-0.096-0.023-0.164-0.069-0.206-0.138
					c-0.041-0.069-0.051-0.151-0.029-0.245c0.024-0.1,0.074-0.173,0.15-0.221c0.076-0.047,0.164-0.059,0.262-0.036
					c0.061,0.015,0.11,0.034,0.148,0.06l-0.032,0.135c-0.036-0.035-0.08-0.059-0.134-0.071c-0.059-0.014-0.11-0.007-0.155,0.021
					s-0.075,0.074-0.09,0.137c-0.014,0.06-0.009,0.112,0.016,0.156s0.067,0.073,0.124,0.086c0.055,0.013,0.108,0.012,0.16-0.004
					L16.641,4.082z"/>
				<path style="fill:#F5DD0A;" d="M17.311,3.745l-0.176-0.048l-0.137,0.505l-0.14-0.038l0.137-0.505l-0.176-0.048l0.031-0.113
					l0.492,0.134L17.311,3.745z"/>
				<path style="fill:#F5DD0A;" d="M17.252,4.273l0.188-0.613l0.223,0.068c0.068,0.021,0.117,0.05,0.146,0.086
					c0.029,0.036,0.037,0.077,0.023,0.123c-0.01,0.033-0.03,0.059-0.06,0.076c-0.03,0.018-0.064,0.026-0.102,0.025L17.67,4.041
					c0.042,0.019,0.072,0.046,0.09,0.08c0.018,0.035,0.021,0.071,0.009,0.11c-0.017,0.056-0.051,0.094-0.101,0.115
					c-0.05,0.021-0.11,0.02-0.18-0.001L17.252,4.273z M17.471,4.052l-0.05,0.162l0.075,0.023c0.032,0.01,0.059,0.01,0.082,0.001
					c0.023-0.009,0.038-0.027,0.046-0.052c0.008-0.025,0.005-0.047-0.009-0.066c-0.014-0.019-0.036-0.034-0.068-0.044L17.471,4.052z
					 M17.547,3.804L17.503,3.95l0.061,0.019c0.028,0.009,0.053,0.009,0.074,0c0.021-0.009,0.035-0.025,0.042-0.05
					c0.014-0.045-0.013-0.078-0.08-0.099L17.547,3.804z"/>
				<path style="fill:#F5DD0A;" d="M18.172,4.571l-0.364-0.124l0.207-0.607l0.35,0.12l-0.038,0.111l-0.213-0.073l-0.046,0.135
					l0.198,0.068l-0.038,0.111L18.03,4.244l-0.047,0.139L18.21,4.46L18.172,4.571z"/>
				<path style="fill:#F5DD0A;" d="M18.782,4.801l-0.135-0.052l0.093-0.244l-0.248-0.095l-0.093,0.244l-0.135-0.051l0.228-0.599
					l0.135,0.051l-0.091,0.239l0.248,0.095l0.091-0.239l0.135,0.052L18.782,4.801z"/>
				<path style="fill:#F5DD0A;" d="M19.422,5.073l-0.133-0.057l0.103-0.24l-0.244-0.105l-0.103,0.24l-0.133-0.057l0.254-0.589
					l0.133,0.057l-0.101,0.235l0.244,0.105l0.101-0.235l0.133,0.057L19.422,5.073z"/>
				<path style="fill:#F5DD0A;" d="M20.059,5.376l-0.142-0.068l0.021-0.148l-0.206-0.099L19.629,5.17l-0.141-0.068l0.488-0.477
					l0.154,0.074L20.059,5.376z M19.956,5.045l0.031-0.224c0.002-0.017,0.007-0.036,0.015-0.057l-0.003-0.002
					c-0.01,0.016-0.021,0.031-0.034,0.046l-0.157,0.166L19.956,5.045z"/>
				<path style="fill:#F5DD0A;" d="M20.512,5.616l-0.128-0.068l0.116-0.22l-0.034-0.018c-0.032-0.017-0.07-0.006-0.116,0.031
					l-0.14,0.116l-0.147-0.078l0.169-0.127c0.048-0.036,0.093-0.05,0.135-0.042l0.001-0.002c-0.073-0.064-0.089-0.134-0.049-0.211
					c0.027-0.051,0.066-0.081,0.118-0.09c0.052-0.009,0.111,0.004,0.178,0.039l0.195,0.103L20.512,5.616z M20.551,5.233l0.081-0.154
					l-0.053-0.028c-0.06-0.032-0.103-0.023-0.129,0.027c-0.013,0.024-0.014,0.047-0.006,0.07c0.009,0.023,0.027,0.042,0.054,0.056
					L20.551,5.233z"/>
			</g>
		</g>
		<g>
			<g>
				<path style="fill:#F5DD0A;" d="M3.486,7.622C3.412,7.677,3.334,7.697,3.252,7.683C3.17,7.669,3.101,7.624,3.044,7.546
					c-0.06-0.082-0.085-0.165-0.075-0.25c0.01-0.085,0.054-0.157,0.132-0.214c0.074-0.054,0.151-0.074,0.232-0.059
					c0.081,0.015,0.151,0.062,0.209,0.141c0.06,0.081,0.084,0.164,0.074,0.248C3.605,7.496,3.562,7.567,3.486,7.622z M3.172,7.184
					C3.131,7.215,3.11,7.254,3.109,7.302C3.107,7.35,3.125,7.4,3.162,7.45C3.2,7.501,3.241,7.533,3.287,7.545
					C3.333,7.557,3.376,7.549,3.415,7.52c0.04-0.03,0.061-0.067,0.064-0.114C3.48,7.36,3.463,7.312,3.425,7.26
					c-0.039-0.054-0.081-0.087-0.126-0.1C3.254,7.147,3.212,7.155,3.172,7.184z"/>
				<path style="fill:#F5DD0A;" d="M3.816,7.107L3.938,7.29l-0.12,0.08L3.462,6.837l0.188-0.126c0.134-0.09,0.239-0.078,0.315,0.036
					c0.036,0.054,0.045,0.11,0.029,0.169c-0.016,0.059-0.057,0.11-0.121,0.153L3.816,7.107z M3.644,6.849l0.111,0.166l0.047-0.032
					c0.064-0.043,0.077-0.092,0.04-0.148C3.805,6.781,3.755,6.775,3.691,6.818L3.644,6.849z"/>
				<path style="fill:#F5DD0A;" d="M4.336,6.42L4.133,6.544l0.273,0.445L4.283,7.064L3.948,6.518l0.325-0.2L4.336,6.42z"/>
				<path style="fill:#F5DD0A;" d="M5.126,6.571L4.989,6.648l-0.11-0.102L4.681,6.659l0.031,0.146L4.575,6.882L4.463,6.209
					l0.149-0.084L5.126,6.571z M4.796,6.466L4.63,6.313C4.617,6.301,4.605,6.286,4.592,6.268L4.589,6.269
					c0.008,0.017,0.014,0.035,0.018,0.054l0.046,0.223L4.796,6.466z"/>
				<path style="fill:#F5DD0A;" d="M5.686,6.287L5.557,6.353L5.439,6.119l-0.237,0.12L5.32,6.472L5.191,6.537L4.902,5.965L5.031,5.9
					l0.115,0.228l0.237-0.12L5.268,5.78l0.129-0.065L5.686,6.287z"/>
				<path style="fill:#F5DD0A;" d="M6.338,5.994L6.214,6.049L6.071,5.727C6.054,5.69,6.042,5.658,6.033,5.63L6.03,5.631
					C6.03,5.645,6.027,5.666,6.022,5.693L5.944,6.169L5.811,6.228l-0.26-0.586l0.125-0.055L5.82,5.91
					c0.018,0.04,0.029,0.067,0.032,0.082l0.002-0.001c0-0.004,0.003-0.024,0.009-0.061l0.074-0.46l0.141-0.063L6.338,5.994z"/>
				<path style="fill:#F5DD0A;" d="M6.422,5.934L6.376,5.817c0.06,0.013,0.12,0.008,0.181-0.016c0.075-0.03,0.102-0.071,0.08-0.125
					C6.615,5.62,6.563,5.609,6.481,5.642l-0.077,0.03l-0.04-0.101l0.073-0.029c0.073-0.029,0.1-0.069,0.079-0.121
					C6.499,5.374,6.458,5.363,6.396,5.388C6.351,5.405,6.309,5.438,6.27,5.486l-0.043-0.11C6.268,5.333,6.32,5.299,6.382,5.275
					C6.447,5.249,6.503,5.243,6.55,5.256c0.047,0.013,0.079,0.042,0.097,0.089c0.014,0.036,0.016,0.071,0.006,0.105
					C6.642,5.483,6.62,5.511,6.586,5.535l0.001,0.002C6.631,5.526,6.67,5.528,6.704,5.544c0.034,0.016,0.058,0.042,0.073,0.079
					C6.8,5.68,6.796,5.733,6.767,5.781C6.738,5.829,6.684,5.868,6.606,5.899C6.532,5.929,6.471,5.94,6.422,5.934z"/>
				<path style="fill:#F5DD0A;" d="M7.473,5.571L7.324,5.623l-0.09-0.12L7.019,5.579l0.004,0.15L6.875,5.78l0.009-0.682l0.162-0.056
					L7.473,5.571z M7.166,5.41L7.03,5.229c-0.01-0.014-0.02-0.03-0.029-0.051L6.998,5.179c0.005,0.018,0.007,0.037,0.008,0.056
					l0.006,0.228L7.166,5.41z"/>
				<path style="fill:#F5DD0A;" d="M8.211,5.533L8.09,5.569L8.04,5.401L7.542,5.549L7.359,4.935l0.138-0.041L7.645,5.39L7.9,5.314
					L7.752,4.818l0.139-0.041l0.148,0.496l0.088-0.026L8.211,5.533z"/>
				<path style="fill:#F5DD0A;" d="M8.818,5.204L8.686,5.236L8.602,4.894c-0.01-0.039-0.016-0.073-0.02-0.102L8.579,4.792
					C8.576,4.806,8.57,4.826,8.561,4.852L8.399,5.306L8.258,5.341L8.106,4.718l0.132-0.032L8.322,5.03
					c0.01,0.043,0.016,0.071,0.017,0.086l0.002,0c0.001-0.004,0.007-0.023,0.02-0.059l0.155-0.44l0.15-0.037L8.818,5.204z"/>
				<path style="fill:#F5DD0A;" d="M9.386,5.089L9.244,5.117L9.195,4.873L9.157,4.881C9.122,4.888,9.099,4.92,9.087,4.978
					L9.051,5.156L8.888,5.188l0.051-0.205c0.014-0.058,0.04-0.097,0.078-0.118l0-0.002C8.92,4.86,8.862,4.815,8.845,4.73
					c-0.011-0.056,0-0.105,0.035-0.144c0.035-0.04,0.089-0.067,0.163-0.082L9.26,4.46L9.386,5.089z M9.174,4.767L9.14,4.596
					L9.081,4.608C9.014,4.621,8.987,4.656,8.998,4.711c0.005,0.026,0.018,0.046,0.04,0.058c0.021,0.013,0.047,0.016,0.077,0.01
					L9.174,4.767z"/>
				<path style="fill:#F5DD0A;" d="M9.771,5.024l-0.09-0.635l0.231-0.033c0.071-0.01,0.127-0.005,0.169,0.016
					c0.042,0.021,0.066,0.054,0.073,0.102c0.005,0.034-0.002,0.066-0.022,0.095c-0.02,0.029-0.047,0.051-0.081,0.066l0,0.002
					c0.046-0.001,0.084,0.011,0.115,0.035s0.049,0.056,0.055,0.096c0.008,0.058-0.006,0.107-0.043,0.147
					c-0.037,0.04-0.091,0.065-0.163,0.075L9.771,5.024z M9.839,4.474l0.021,0.15l0.063-0.009c0.03-0.004,0.052-0.015,0.067-0.031
					c0.015-0.017,0.021-0.038,0.017-0.063C10,4.474,9.962,4.456,9.892,4.466L9.839,4.474z M9.875,4.73l0.024,0.167l0.077-0.011
					c0.033-0.005,0.058-0.016,0.074-0.034s0.023-0.04,0.019-0.067c-0.004-0.025-0.016-0.044-0.036-0.056
					c-0.021-0.012-0.047-0.015-0.08-0.011L9.875,4.73z"/>
				<path style="fill:#F5DD0A;" d="M10.731,4.904l-0.382,0.041L10.28,4.307l0.368-0.039l0.013,0.117l-0.224,0.024l0.015,0.142
					l0.209-0.022l0.012,0.117l-0.209,0.022l0.016,0.146l0.239-0.026L10.731,4.904z"/>
				<path style="fill:#F5DD0A;" d="M11.239,4.34l-0.182,0.013l0.039,0.522l-0.144,0.011l-0.039-0.522l-0.181,0.013L10.722,4.26
					l0.508-0.037L11.239,4.34z"/>
				<path style="fill:#F5DD0A;" d="M11.742,4.843l-0.384,0.016l-0.026-0.641l0.369-0.015l0.005,0.118L11.481,4.33l0.006,0.143
					l0.21-0.009l0.005,0.117l-0.21,0.009l0.006,0.147l0.24-0.01L11.742,4.843z"/>
				<path style="fill:#F5DD0A;" d="M11.983,4.619l0.003,0.221l-0.144,0.002l-0.009-0.641l0.226-0.003
					c0.162-0.002,0.243,0.065,0.245,0.201c0.001,0.064-0.022,0.117-0.067,0.157c-0.046,0.04-0.107,0.061-0.185,0.062L11.983,4.619z
					 M11.979,4.31l0.003,0.2l0.057-0.001c0.077-0.001,0.115-0.035,0.114-0.103c-0.001-0.066-0.04-0.098-0.117-0.097L11.979,4.31z"/>
				<path style="fill:#F5DD0A;" d="M12.904,4.853l-0.157-0.004l-0.042-0.144l-0.228-0.006L12.428,4.84l-0.156-0.004l0.25-0.635
					l0.171,0.005L12.904,4.853z M12.675,4.593l-0.063-0.217c-0.005-0.016-0.008-0.036-0.009-0.058l-0.004,0
					c-0.002,0.019-0.006,0.037-0.013,0.056l-0.076,0.215L12.675,4.593z"/>
				<path style="fill:#F5DD0A;" d="M13.532,4.896l-0.145-0.01l0.018-0.26l-0.265-0.018l-0.018,0.26l-0.144-0.01l0.045-0.64
					l0.144,0.01L13.15,4.483l0.265,0.018l0.018-0.255l0.145,0.01L13.532,4.896z"/>
				<path style="fill:#F5DD0A;" d="M13.938,4.951c-0.091-0.01-0.162-0.049-0.213-0.115c-0.051-0.066-0.07-0.147-0.059-0.242
					c0.012-0.101,0.05-0.179,0.116-0.234c0.066-0.055,0.146-0.078,0.243-0.067c0.091,0.01,0.161,0.049,0.21,0.115
					c0.049,0.066,0.068,0.148,0.057,0.245c-0.012,0.1-0.05,0.177-0.115,0.232C14.111,4.939,14.032,4.961,13.938,4.951z
					 M14.006,4.416c-0.05-0.006-0.092,0.008-0.126,0.043c-0.034,0.034-0.055,0.083-0.062,0.145
					c-0.007,0.063,0.002,0.115,0.027,0.155c0.025,0.04,0.062,0.063,0.11,0.068c0.049,0.006,0.091-0.008,0.124-0.04
					s0.053-0.08,0.061-0.144c0.008-0.066-0.001-0.119-0.024-0.159C14.091,4.444,14.055,4.422,14.006,4.416z"/>
				<path style="fill:#F5DD0A;" d="M14.354,4.991l0.1-0.633l0.231,0.036c0.071,0.011,0.123,0.033,0.157,0.065
					c0.034,0.032,0.047,0.071,0.04,0.119c-0.005,0.034-0.022,0.062-0.049,0.084c-0.027,0.022-0.059,0.035-0.097,0.039l0,0.002
					c0.044,0.013,0.078,0.035,0.1,0.067c0.023,0.032,0.031,0.068,0.024,0.108c-0.009,0.058-0.037,0.101-0.084,0.128
					c-0.047,0.027-0.106,0.036-0.178,0.024L14.354,4.991z M14.54,4.742l-0.026,0.167l0.077,0.012
					c0.033,0.005,0.06,0.002,0.081-0.011c0.021-0.012,0.034-0.032,0.038-0.058c0.004-0.025-0.002-0.047-0.018-0.064
					c-0.016-0.017-0.041-0.029-0.074-0.034L14.54,4.742z M14.58,4.485l-0.024,0.15l0.063,0.01c0.029,0.005,0.054,0.001,0.073-0.01
					c0.019-0.012,0.031-0.03,0.035-0.055c0.007-0.047-0.024-0.075-0.093-0.086L14.58,4.485z"/>
				<path style="fill:#F5DD0A;" d="M15.627,5.205c-0.051,0.012-0.113,0.011-0.186-0.005c-0.096-0.021-0.166-0.065-0.209-0.133
					c-0.043-0.068-0.054-0.15-0.034-0.244c0.021-0.1,0.07-0.175,0.145-0.224c0.075-0.049,0.162-0.063,0.261-0.042
					c0.061,0.013,0.111,0.032,0.15,0.056l-0.029,0.136c-0.037-0.034-0.082-0.057-0.135-0.068c-0.059-0.013-0.11-0.004-0.154,0.025
					c-0.044,0.029-0.073,0.076-0.086,0.139C15.336,4.905,15.342,4.957,15.369,5c0.026,0.043,0.068,0.071,0.126,0.083
					c0.055,0.012,0.108,0.009,0.16-0.008L15.627,5.205z"/>
				<path style="fill:#F5DD0A;" d="M16.262,5.39l-0.14-0.036l0.129-0.499l-0.257-0.066l-0.129,0.499l-0.14-0.036l0.16-0.621
					l0.537,0.139L16.262,5.39z"/>
				<path style="fill:#F5DD0A;" d="M16.766,5.54L16.397,5.43l0.185-0.614l0.354,0.107l-0.034,0.113L16.687,4.97l-0.041,0.137
					l0.201,0.06l-0.034,0.112l-0.201-0.06l-0.042,0.14l0.23,0.069L16.766,5.54z"/>
				<path style="fill:#F5DD0A;" d="M17.411,5.946l-0.12-0.042l0.057-0.165l-0.491-0.171l0.21-0.606l0.136,0.047l-0.17,0.489
					l0.251,0.087l0.17-0.489l0.137,0.048l-0.17,0.489l0.087,0.03L17.411,5.946z"/>
				<path style="fill:#F5DD0A;" d="M18.075,6.025L17.941,5.97l0.098-0.242l-0.246-0.1l-0.098,0.242l-0.134-0.054l0.24-0.595
					l0.134,0.054l-0.096,0.237l0.246,0.1l0.096-0.237l0.134,0.054L18.075,6.025z"/>
				<path style="fill:#F5DD0A;" d="M18.715,6.315L18.572,6.25l0.018-0.149l-0.207-0.095l-0.101,0.111L18.14,6.051l0.48-0.485
					l0.156,0.071L18.715,6.315z M18.606,5.987l0.027-0.225c0.002-0.017,0.007-0.036,0.014-0.057l-0.003-0.001
					c-0.009,0.016-0.02,0.032-0.033,0.046l-0.154,0.168L18.606,5.987z"/>
				<path style="fill:#F5DD0A;" d="M18.755,6.311l0.057-0.113c0.03,0.054,0.074,0.095,0.132,0.125
					c0.072,0.036,0.121,0.029,0.147-0.023c0.027-0.053,0.001-0.099-0.078-0.139L18.94,6.123l0.049-0.096l0.07,0.036
					c0.07,0.036,0.118,0.029,0.143-0.021c0.023-0.045,0.005-0.083-0.055-0.113c-0.043-0.022-0.095-0.031-0.158-0.029l0.054-0.105
					c0.06,0.003,0.12,0.019,0.179,0.049c0.062,0.032,0.104,0.069,0.126,0.113c0.021,0.043,0.021,0.087-0.002,0.132
					c-0.018,0.035-0.043,0.059-0.074,0.074c-0.032,0.014-0.068,0.017-0.109,0.007L19.161,6.17c0.038,0.026,0.062,0.057,0.073,0.093
					c0.011,0.036,0.007,0.071-0.011,0.107c-0.028,0.055-0.07,0.088-0.125,0.098c-0.055,0.01-0.12-0.004-0.195-0.042
					C18.832,6.389,18.782,6.351,18.755,6.311z"/>
				<path style="fill:#F5DD0A;" d="M19.722,6.856l-0.137-0.077l0.03-0.147l-0.199-0.112l-0.109,0.102L19.17,6.547l0.517-0.445
					l0.149,0.084L19.722,6.856z M19.64,6.52l0.045-0.222c0.003-0.017,0.01-0.035,0.019-0.056l-0.003-0.002
					c-0.01,0.016-0.023,0.03-0.037,0.043l-0.167,0.155L19.64,6.52z"/>
				<path style="fill:#F5DD0A;" d="M20.601,6.793l-0.2-0.128l-0.281,0.44l-0.122-0.078l0.346-0.54l0.322,0.206L20.601,6.793z"/>
				<path style="fill:#F5DD0A;" d="M20.63,7.178L20.504,7.36l-0.119-0.082l0.365-0.527l0.186,0.129
					c0.133,0.092,0.16,0.194,0.083,0.306c-0.037,0.053-0.085,0.083-0.146,0.089c-0.061,0.006-0.123-0.013-0.187-0.057L20.63,7.178z
					 M20.807,6.924l-0.114,0.164l0.047,0.032c0.063,0.044,0.114,0.038,0.152-0.017C20.929,7.049,20.917,7,20.853,6.956L20.807,6.924
					z"/>
				<path style="fill:#F5DD0A;" d="M21.616,7.379l-0.425,0.23c-0.08,0.043-0.142,0.066-0.186,0.07
					c-0.045,0.004-0.087-0.01-0.128-0.041c-0.027-0.021-0.046-0.041-0.057-0.062l0.08-0.105c0.01,0.027,0.025,0.049,0.046,0.065
					c0.029,0.022,0.072,0.018,0.129-0.012l0.098-0.479l0.131,0.099l-0.07,0.269c-0.004,0.016-0.011,0.033-0.02,0.051l0.001,0.001
					c0.012-0.011,0.027-0.021,0.043-0.031l0.238-0.144L21.616,7.379z"/>
			</g>
		</g>
		<g>
			<g>
				<path style="fill:#F5DD0A;" d="M4.501,19.533c0,0.064-0.011,0.122-0.034,0.173s-0.055,0.09-0.096,0.118
					c-0.041,0.028-0.087,0.042-0.138,0.042c-0.05,0-0.095-0.014-0.136-0.041C4.055,19.798,4.023,19.76,4,19.71
					c-0.023-0.049-0.034-0.105-0.034-0.167c0-0.065,0.011-0.124,0.034-0.176c0.023-0.052,0.055-0.092,0.097-0.121
					s0.089-0.043,0.141-0.043c0.051,0,0.096,0.014,0.136,0.041c0.04,0.027,0.071,0.066,0.093,0.117
					C4.49,19.411,4.501,19.468,4.501,19.533z M4.331,19.538c0-0.053-0.008-0.094-0.025-0.125s-0.04-0.046-0.069-0.046
					c-0.032,0-0.057,0.015-0.074,0.044c-0.018,0.029-0.027,0.071-0.027,0.124c0,0.052,0.009,0.093,0.027,0.122
					c0.018,0.029,0.042,0.044,0.072,0.044c0.019,0,0.035-0.007,0.05-0.02c0.015-0.013,0.026-0.032,0.034-0.056
					C4.327,19.601,4.331,19.572,4.331,19.538z"/>
				<path style="fill:#F5DD0A;" d="M5.081,19.533c0,0.064-0.011,0.122-0.034,0.173s-0.055,0.09-0.096,0.118
					c-0.041,0.028-0.087,0.042-0.138,0.042c-0.05,0-0.095-0.014-0.136-0.041C4.635,19.798,4.603,19.76,4.58,19.71
					c-0.023-0.049-0.034-0.105-0.034-0.167c0-0.065,0.011-0.124,0.034-0.176s0.055-0.092,0.097-0.121s0.089-0.043,0.141-0.043
					c0.051,0,0.096,0.014,0.136,0.041c0.04,0.027,0.071,0.066,0.093,0.117C5.07,19.411,5.081,19.468,5.081,19.533z M4.911,19.538
					c0-0.053-0.008-0.094-0.025-0.125s-0.04-0.046-0.069-0.046c-0.032,0-0.057,0.015-0.074,0.044
					c-0.018,0.029-0.027,0.071-0.027,0.124c0,0.052,0.009,0.093,0.027,0.122s0.042,0.044,0.072,0.044c0.019,0,0.035-0.007,0.05-0.02
					c0.015-0.013,0.026-0.032,0.034-0.056C4.907,19.601,4.911,19.572,4.911,19.538z"/>
				<path style="fill:#F5DD0A;" d="M5.661,19.533c0,0.064-0.011,0.122-0.034,0.173s-0.055,0.09-0.096,0.118
					c-0.041,0.028-0.087,0.042-0.138,0.042c-0.05,0-0.095-0.014-0.136-0.041C5.215,19.798,5.183,19.76,5.16,19.71
					c-0.023-0.049-0.034-0.105-0.034-0.167c0-0.065,0.011-0.124,0.034-0.176s0.055-0.092,0.097-0.121s0.089-0.043,0.141-0.043
					c0.051,0,0.096,0.014,0.136,0.041c0.04,0.027,0.071,0.066,0.093,0.117C5.65,19.411,5.661,19.468,5.661,19.533z M5.491,19.538
					c0-0.053-0.008-0.094-0.025-0.125c-0.017-0.03-0.04-0.046-0.069-0.046c-0.032,0-0.057,0.015-0.074,0.044
					c-0.018,0.029-0.027,0.071-0.027,0.124c0,0.052,0.009,0.093,0.027,0.122c0.018,0.029,0.042,0.044,0.072,0.044
					c0.019,0,0.035-0.007,0.05-0.02c0.015-0.013,0.026-0.032,0.034-0.056C5.487,19.601,5.491,19.572,5.491,19.538z"/>
				<path style="fill:#F5DD0A;" d="M6.262,19.855v-0.208c-0.019,0.007-0.043,0.014-0.07,0.019c-0.027,0.005-0.053,0.008-0.079,0.008
					c-0.118,0-0.177-0.071-0.177-0.211v-0.248h0.16v0.227c0,0.048,0.022,0.072,0.066,0.072c0.026,0,0.06-0.006,0.1-0.019v-0.281
					h0.16v0.641L6.262,19.855L6.262,19.855z"/>
				<path style="fill:#F5DD0A;" d="M6.86,19.855l-0.023-0.118H6.678l-0.025,0.118H6.48l0.183-0.641h0.198l0.172,0.641H6.86z
					 M6.759,19.353H6.755c-0.001,0.007-0.002,0.019-0.005,0.035c-0.003,0.016-0.018,0.087-0.045,0.211h0.101L6.77,19.425
					C6.765,19.4,6.761,19.376,6.759,19.353z"/>
				<path style="fill:#F5DD0A;" d="M7.491,19.837c-0.044,0.019-0.095,0.029-0.152,0.029c-0.057,0-0.105-0.013-0.146-0.039
					s-0.072-0.063-0.094-0.111s-0.032-0.104-0.032-0.167c0-0.068,0.012-0.128,0.036-0.181c0.024-0.053,0.058-0.094,0.103-0.122
					c0.044-0.029,0.095-0.043,0.153-0.043c0.046,0,0.09,0.007,0.133,0.02v0.178c-0.015-0.011-0.032-0.019-0.053-0.025
					c-0.02-0.006-0.041-0.009-0.062-0.009c-0.043,0-0.078,0.015-0.103,0.045c-0.025,0.03-0.038,0.071-0.038,0.123
					c0,0.051,0.013,0.092,0.038,0.121c0.025,0.03,0.059,0.045,0.101,0.045c0.039,0,0.078-0.012,0.117-0.036L7.491,19.837
					L7.491,19.837z"/>
				<path style="fill:#F5DD0A;" d="M7.842,19.365v0.49H7.681v-0.49H7.532v-0.151h0.459v0.151H7.842z"/>
				<path style="fill:#F5DD0A;" d="M8.399,19.855v-0.239H8.215v0.239h-0.16v-0.641h0.16v0.237h0.184v-0.237h0.16v0.641H8.399z"/>
				<path style="fill:#F5DD0A;" d="M9.169,19.533c0,0.064-0.011,0.122-0.034,0.173s-0.055,0.09-0.096,0.118
					c-0.041,0.028-0.087,0.042-0.138,0.042c-0.05,0-0.095-0.014-0.136-0.041c-0.041-0.027-0.073-0.066-0.095-0.115
					c-0.023-0.049-0.034-0.105-0.034-0.167c0-0.065,0.011-0.124,0.034-0.176s0.055-0.092,0.097-0.121
					c0.041-0.028,0.089-0.043,0.141-0.043c0.051,0,0.096,0.014,0.136,0.041c0.04,0.027,0.071,0.066,0.093,0.117
					C9.159,19.411,9.169,19.468,9.169,19.533z M9,19.538c0-0.053-0.008-0.094-0.025-0.125s-0.04-0.046-0.069-0.046
					c-0.032,0-0.057,0.015-0.074,0.044c-0.018,0.029-0.027,0.071-0.027,0.124c0,0.052,0.009,0.093,0.027,0.122
					s0.042,0.044,0.072,0.044c0.019,0,0.035-0.007,0.05-0.02c0.015-0.013,0.026-0.032,0.034-0.056C8.996,19.601,9,19.572,9,19.538z"
					/>
				<path style="fill:#F5DD0A;" d="M9.245,19.855v-0.641h0.331v0.151H9.405v0.093h0.16v0.151h-0.16v0.094h0.183v0.151L9.245,19.855
					L9.245,19.855z"/>
				<path style="fill:#F5DD0A;" d="M10.379,19.533c0,0.064-0.011,0.122-0.034,0.173s-0.055,0.09-0.096,0.118
					c-0.041,0.028-0.087,0.042-0.138,0.042c-0.05,0-0.095-0.014-0.136-0.041c-0.041-0.027-0.073-0.066-0.095-0.115
					c-0.023-0.049-0.034-0.105-0.034-0.167c0-0.065,0.011-0.124,0.034-0.176s0.055-0.092,0.097-0.121
					c0.041-0.028,0.089-0.043,0.141-0.043c0.051,0,0.096,0.014,0.136,0.041c0.04,0.027,0.071,0.066,0.093,0.117
					C10.368,19.411,10.379,19.468,10.379,19.533z M10.209,19.538c0-0.053-0.008-0.094-0.025-0.125s-0.04-0.046-0.069-0.046
					c-0.032,0-0.057,0.015-0.074,0.044c-0.018,0.029-0.027,0.071-0.027,0.124c0,0.052,0.009,0.093,0.027,0.122
					c0.018,0.029,0.042,0.044,0.072,0.044c0.019,0,0.035-0.007,0.05-0.02c0.015-0.013,0.026-0.032,0.034-0.056
					C10.205,19.601,10.209,19.572,10.209,19.538z"/>
				<path style="fill:#F5DD0A;" d="M10.746,19.855l-0.066-0.176c-0.004-0.011-0.007-0.022-0.008-0.032
					c-0.001-0.011-0.002-0.019-0.003-0.026h-0.001c-0.001,0.007-0.003,0.017-0.005,0.028c-0.002,0.012-0.005,0.023-0.008,0.034
					l-0.061,0.172h-0.19l0.159-0.32l-0.145-0.321h0.193l0.051,0.169c0.005,0.016,0.009,0.037,0.013,0.063h0.001
					c0.004-0.029,0.008-0.05,0.014-0.063l0.06-0.169h0.178l-0.149,0.318l0.156,0.323L10.746,19.855L10.746,19.855z"/>
				<path style="fill:#F5DD0A;" d="M11.42,19.425c0,0.044-0.009,0.083-0.028,0.117c-0.018,0.034-0.045,0.06-0.079,0.079
					c-0.034,0.019-0.074,0.028-0.119,0.028h-0.049v0.206h-0.16v-0.641h0.218c0.075,0,0.129,0.017,0.164,0.051
					C11.403,19.299,11.42,19.353,11.42,19.425z M11.251,19.432c0-0.026-0.006-0.046-0.019-0.059c-0.013-0.013-0.031-0.02-0.056-0.02
					h-0.03v0.158h0.036C11.228,19.511,11.251,19.484,11.251,19.432z"/>
				<path style="fill:#F5DD0A;" d="M11.816,19.855l-0.023-0.118h-0.158l-0.025,0.118h-0.173l0.183-0.641h0.198l0.172,0.641H11.816z
					 M11.715,19.353h-0.004c-0.001,0.007-0.002,0.019-0.005,0.035c-0.003,0.016-0.018,0.087-0.045,0.211h0.101l-0.037-0.174
					C11.721,19.4,11.717,19.376,11.715,19.353z"/>
				<path style="fill:#F5DD0A;" d="M12.395,19.855v-0.239h-0.184v0.239h-0.16v-0.641h0.16v0.237h0.184v-0.237h0.16v0.641H12.395z"/>
				<path style="fill:#F5DD0A;" d="M13.004,19.855v-0.239h-0.184v0.239h-0.16v-0.641h0.16v0.237h0.184v-0.237h0.16v0.641H13.004z"/>
				<path style="fill:#F5DD0A;" d="M13.775,19.533c0,0.064-0.011,0.122-0.034,0.173s-0.055,0.09-0.096,0.118
					c-0.041,0.028-0.087,0.042-0.138,0.042c-0.05,0-0.095-0.014-0.136-0.041c-0.041-0.027-0.073-0.066-0.095-0.115
					c-0.023-0.049-0.034-0.105-0.034-0.167c0-0.065,0.011-0.124,0.034-0.176s0.055-0.092,0.097-0.121
					c0.041-0.028,0.089-0.043,0.141-0.043c0.051,0,0.096,0.014,0.136,0.041c0.04,0.027,0.071,0.066,0.093,0.117
					C13.764,19.411,13.775,19.468,13.775,19.533z M13.605,19.538c0-0.053-0.008-0.094-0.025-0.125s-0.04-0.046-0.069-0.046
					c-0.032,0-0.057,0.015-0.074,0.044c-0.018,0.029-0.027,0.071-0.027,0.124c0,0.052,0.009,0.093,0.027,0.122
					s0.042,0.044,0.072,0.044c0.019,0,0.035-0.007,0.05-0.02c0.015-0.013,0.026-0.032,0.034-0.056
					C13.601,19.601,13.605,19.572,13.605,19.538z"/>
				<path style="fill:#F5DD0A;" d="M13.85,19.855v-0.641h0.331v0.151H14.01v0.093h0.16v0.151h-0.16v0.094h0.183v0.151L13.85,19.855
					L13.85,19.855z"/>
				<path style="fill:#F5DD0A;" d="M14.823,19.855v-0.477h-0.184v0.477h-0.16v-0.641h0.503v0.641H14.823z"/>
				<path style="fill:#F5DD0A;" d="M15.521,19.425c0,0.044-0.009,0.083-0.028,0.117c-0.018,0.034-0.045,0.06-0.079,0.079
					c-0.034,0.019-0.074,0.028-0.119,0.028h-0.049v0.206h-0.16v-0.641h0.218c0.075,0,0.129,0.017,0.164,0.051
					S15.521,19.353,15.521,19.425z M15.352,19.432c0-0.026-0.006-0.046-0.019-0.059c-0.013-0.013-0.031-0.02-0.056-0.02h-0.03v0.158
					h0.036C15.329,19.511,15.352,19.484,15.352,19.432z"/>
				<path style="fill:#F5DD0A;" d="M15.584,19.855v-0.641h0.331v0.151h-0.171v0.093h0.16v0.151h-0.16v0.094h0.183v0.151
					L15.584,19.855L15.584,19.855z"/>
				<path style="fill:#F5DD0A;" d="M16.399,20.035v-0.18h-0.302v0.18h-0.141v-0.334h0.053c0.064-0.136,0.099-0.299,0.105-0.487
					h0.347v0.487h0.082v0.334H16.399z M16.301,19.371h-0.06c-0.007,0.109-0.032,0.219-0.073,0.33h0.133L16.301,19.371L16.301,19.371
					z"/>
				<path style="fill:#F5DD0A;" d="M16.957,19.855v-0.477h-0.184v0.477h-0.16v-0.641h0.503v0.641H16.957z"/>
				<path style="fill:#F5DD0A;" d="M17.655,19.425c0,0.044-0.009,0.083-0.028,0.117c-0.018,0.034-0.045,0.06-0.079,0.079
					c-0.034,0.019-0.074,0.028-0.119,0.028h-0.049v0.206h-0.16v-0.641h0.218c0.075,0,0.13,0.017,0.164,0.051
					C17.638,19.299,17.655,19.353,17.655,19.425z M17.486,19.432c0-0.026-0.006-0.046-0.019-0.059
					c-0.013-0.013-0.031-0.02-0.056-0.02h-0.03v0.158h0.036C17.463,19.511,17.486,19.484,17.486,19.432z"/>
				<path style="fill:#F5DD0A;" d="M18.082,19.855v-0.269c0-0.039,0.001-0.075,0.002-0.106h-0.001
					c-0.005,0.01-0.011,0.021-0.017,0.033c-0.006,0.012-0.075,0.126-0.207,0.343h-0.14v-0.641h0.148v0.279
					c0,0.035-0.001,0.06-0.002,0.076h0.001c0.001-0.003,0.002-0.006,0.004-0.009c0.002-0.003,0.011-0.021,0.029-0.052l0.18-0.294
					h0.151v0.641H18.082z"/>
				<path style="fill:#F5DD0A;" d="M18.592,19.855v-0.232H18.58c-0.041,0-0.069,0.03-0.081,0.089l-0.031,0.143h-0.181l0.045-0.167
					c0.009-0.033,0.021-0.059,0.038-0.079c0.017-0.02,0.039-0.036,0.068-0.047V19.56c-0.076-0.022-0.113-0.077-0.113-0.163
					c0-0.059,0.019-0.104,0.057-0.136s0.094-0.048,0.168-0.048h0.203v0.641L18.592,19.855L18.592,19.855z M18.592,19.351h-0.027
					c-0.023,0-0.041,0.006-0.053,0.017c-0.012,0.011-0.018,0.028-0.018,0.049c0,0.021,0.007,0.039,0.02,0.052
					c0.013,0.014,0.031,0.02,0.052,0.02h0.026L18.592,19.351L18.592,19.351z"/>
				<path style="fill:#F5DD0A;" d="M19.125,19.365v0.49h-0.161v-0.49h-0.148v-0.151h0.459v0.151H19.125z"/>
				<path style="fill:#F5DD0A;" d="M19.702,19.855v-0.269c0-0.039,0.001-0.075,0.002-0.106h-0.001
					c-0.005,0.01-0.011,0.021-0.017,0.033c-0.006,0.012-0.075,0.126-0.207,0.343h-0.14v-0.641h0.148v0.279
					c0,0.035-0.001,0.06-0.002,0.076h0.001c0.001-0.003,0.002-0.006,0.004-0.009c0.002-0.003,0.011-0.021,0.029-0.052l0.18-0.294
					h0.151v0.641H19.702z"/>
				<path style="fill:#F5DD0A;" d="M19.955,19.855v-0.641h0.331v0.151h-0.171v0.093h0.16v0.151h-0.16v0.094h0.183v0.151
					L19.955,19.855L19.955,19.855z"/>
			</g>
		</g>
		<g>
			<g>
				<path style="fill:#F5DD0A;" d="M8.927,22.803l-0.074-0.371H8.351l-0.08,0.371H7.723l0.58-2.017h0.629l0.546,2.017H8.927z
					 M8.608,21.224H8.596c-0.002,0.023-0.007,0.06-0.016,0.111C8.571,21.387,8.523,21.608,8.438,22h0.322l-0.117-0.549
					C8.626,21.37,8.614,21.295,8.608,21.224z"/>
				<path style="fill:#F5DD0A;" d="M9.677,22.25v-0.404h0.642v0.404H9.677z"/>
				<path style="fill:#F5DD0A;" d="M12.613,23.368v-0.566h-1.96v-2.017h0.507v1.501h0.318v-1.501h0.507v1.501h0.317v-1.501h0.507
					v1.501h0.26v1.082H12.613z"/>
				<path style="fill:#F5DD0A;" d="M14.47,22.803v-0.847c0-0.124,0.002-0.235,0.007-0.335h-0.005
					c-0.016,0.032-0.034,0.066-0.054,0.103c-0.02,0.037-0.239,0.396-0.655,1.079h-0.445v-2.017h0.469v0.879
					c0,0.109-0.002,0.189-0.007,0.239h0.005c0.003-0.008,0.007-0.018,0.012-0.028c0.005-0.01,0.036-0.065,0.093-0.165l0.569-0.926
					h0.479v2.017L14.47,22.803L14.47,22.803z"/>
				<path style="fill:#F5DD0A;" d="M16.121,21.261v1.542h-0.509v-1.542h-0.471v-0.476h1.456v0.476L16.121,21.261L16.121,21.261z"/>
				<path style="fill:#F5DD0A;" d="M8.749,24.908c0,0.138-0.029,0.26-0.087,0.367s-0.141,0.19-0.249,0.248
					c-0.108,0.059-0.234,0.088-0.377,0.088H7.881v0.649H7.374v-2.017h0.69c0.237,0,0.411,0.054,0.52,0.162
					C8.694,24.513,8.749,24.681,8.749,24.908z M8.213,24.93c0-0.083-0.02-0.145-0.06-0.187c-0.04-0.042-0.099-0.063-0.176-0.063
					H7.881v0.498h0.114C8.14,25.177,8.213,25.095,8.213,24.93z"/>
				<path style="fill:#F5DD0A;" d="M8.95,26.26v-2.017h1.048v0.476H9.457v0.294h0.508v0.476H9.457v0.297h0.58v0.476H8.95z"/>
				<path style="fill:#F5DD0A;" d="M10.783,24.718v1.542h-0.507v-2.017h1.087v0.476L10.783,24.718L10.783,24.718z"/>
				<path style="fill:#F5DD0A;" d="M12.728,26.26v-0.847c0-0.124,0.002-0.235,0.007-0.335H12.73
					c-0.016,0.032-0.034,0.066-0.054,0.103c-0.02,0.037-0.239,0.396-0.655,1.079h-0.445v-2.017h0.469v0.879
					c0,0.109-0.002,0.189-0.007,0.239h0.005c0.003-0.008,0.007-0.018,0.012-0.028c0.005-0.01,0.036-0.065,0.093-0.165l0.569-0.926
					h0.479v2.017L12.728,26.26L12.728,26.26z"/>
				<path style="fill:#F5DD0A;" d="M15.129,25.246c0,0.203-0.036,0.384-0.109,0.544c-0.073,0.16-0.175,0.284-0.305,0.373
					c-0.131,0.089-0.277,0.133-0.439,0.133c-0.158,0-0.302-0.043-0.431-0.129c-0.129-0.086-0.23-0.206-0.302-0.362
					c-0.072-0.155-0.108-0.331-0.108-0.527c0-0.205,0.036-0.39,0.109-0.554c0.073-0.164,0.175-0.291,0.306-0.381
					c0.131-0.09,0.281-0.134,0.448-0.134c0.161,0,0.305,0.043,0.432,0.129c0.127,0.086,0.225,0.208,0.295,0.367
					C15.094,24.864,15.129,25.044,15.129,25.246z M14.591,25.263c0-0.166-0.027-0.297-0.08-0.393
					c-0.053-0.096-0.126-0.143-0.218-0.143c-0.101,0-0.18,0.046-0.236,0.138c-0.056,0.092-0.084,0.222-0.084,0.39
					c0,0.164,0.028,0.292,0.084,0.384s0.132,0.138,0.228,0.138c0.059,0,0.111-0.021,0.158-0.062c0.047-0.041,0.083-0.1,0.109-0.177
					C14.578,25.46,14.591,25.369,14.591,25.263z"/>
				<path style="fill:#F5DD0A;" d="M16.456,26.26v-0.753h-0.582v0.753h-0.507v-2.017h0.507v0.747h0.582v-0.747h0.507v2.017H16.456z"
					/>
			</g>
		</g>
	</g>
	<g id="gerb">
		<g>
			<g>
				<path style="fill:#EEEDED;" d="M12.17,13.323h2.431l2.022-4.336c0.005-0.061,0.007-0.123,0.007-0.185
					c0-1.75-1.997-3.168-4.461-3.168S7.71,7.052,7.71,8.802c0,0.062,0.002,0.124,0.007,0.185l2.022,4.336H12.17z"/>
				<path style="fill:#020203;" d="M12.17,13.323l2.431-0.005l-0.004,0.003l2.013-4.34l-0.001,0.005
					c0.04-0.515-0.102-1.036-0.382-1.468c-0.276-0.436-0.668-0.791-1.104-1.064c-0.437-0.274-0.92-0.472-1.42-0.602
					c-0.5-0.129-1.017-0.189-1.533-0.19c-0.516,0.001-1.032,0.061-1.532,0.19c-0.499,0.13-0.982,0.327-1.42,0.602
					C8.782,6.726,8.391,7.081,8.115,7.517c-0.28,0.432-0.423,0.954-0.382,1.468L7.731,8.98l2.013,4.34l-0.005-0.003L12.17,13.323z
					 M12.17,13.323l-2.431,0.005H9.736l-0.001-0.003L7.704,8.993L7.703,8.991l0-0.003c-0.043-0.521,0.1-1.051,0.381-1.49
					c0.278-0.443,0.672-0.803,1.112-1.081c0.44-0.279,0.927-0.48,1.43-0.613c0.504-0.132,1.024-0.195,1.545-0.197
					c0.52,0.003,1.041,0.066,1.545,0.198c0.503,0.133,0.99,0.334,1.43,0.613c0.439,0.278,0.834,0.638,1.112,1.081
					c0.282,0.439,0.425,0.969,0.381,1.49l0,0.003l-0.001,0.002l-2.031,4.332l-0.001,0.003h-0.003L12.17,13.323z"/>
			</g>
			<path style="fill:#21294D;" d="M15.389,8.508c0.223-0.059,0.525,0.012,0.684,0.182l-1.371,2.986l-0.488-0.131L15.389,8.508z
				 M13.365,11.316l0.728,0.196l1.051-3.094c-0.231-0.211-0.621-0.239-1.033-0.193L13.365,11.316z M12.287,11.027l0.89,0.239
				l0.624-3.068c-0.285-0.223-1.133-0.218-1.464-0.096l-0.032,1.896L12.287,11.027z M15.117,11.889l1.391-2.982
				c0,0,0.012-0.065-0.077-0.111c-0.087-0.044-0.158-0.019-0.158-0.019l-1.472,3.043L15.117,11.889z M8.951,8.508
				C8.728,8.448,8.427,8.52,8.267,8.689l1.371,2.986l0.488-0.131L8.951,8.508z M10.23,8.225C9.817,8.179,9.428,8.207,9.197,8.418
				l1.051,3.094l0.728-0.196L10.23,8.225z M12.036,9.999l-0.032-1.896c-0.331-0.122-1.18-0.128-1.464,0.096l0.624,3.068l0.89-0.239
				L12.036,9.999z M9.54,11.821L8.068,8.778c0,0-0.072-0.025-0.158,0.019C7.821,8.842,7.833,8.907,7.833,8.907l1.391,2.982
				L9.54,11.821z"/>
			<g>
				<g>
					<defs>
						<path id="SVGID_2_" d="M15.389,8.508c0.223-0.059,0.525,0.012,0.684,0.182l-1.371,2.986l-0.488-0.131L15.389,8.508z
							 M13.365,11.316l0.728,0.196l1.051-3.094c-0.231-0.211-0.621-0.239-1.033-0.193L13.365,11.316z M12.287,11.027l0.89,0.239
							l0.624-3.068c-0.285-0.223-1.133-0.218-1.464-0.096l-0.032,1.896L12.287,11.027z M15.117,11.889l1.391-2.982
							c0,0,0.012-0.065-0.077-0.111c-0.087-0.044-0.158-0.019-0.158-0.019l-1.472,3.043L15.117,11.889z M8.951,8.508
							C8.728,8.448,8.427,8.52,8.267,8.689l1.371,2.986l0.488-0.131L8.951,8.508z M10.23,8.225C9.817,8.179,9.428,8.207,9.197,8.418
							l1.051,3.094l0.728-0.196L10.23,8.225z M12.036,9.999l-0.032-1.896c-0.331-0.122-1.18-0.128-1.464,0.096l0.624,3.068
							l0.89-0.239L12.036,9.999z M9.54,11.821L8.068,8.778c0,0-0.072-0.025-0.158,0.019C7.821,8.842,7.833,8.907,7.833,8.907
							l1.391,2.982L9.54,11.821z"/>
					</defs>
					<clipPath id="SVGID_3_">
						<use xlink:href="#SVGID_2_"  style="overflow:visible;"/>
					</clipPath>
					<path style="clip-path:url(#SVGID_3_);fill:#6C797F;" d="M16.509,8.876c0,0.367-1.942,0.665-4.338,0.665
						S7.832,9.244,7.832,8.876c0-0.367,1.946-1.439,4.342-1.439S16.509,8.509,16.509,8.876z"/>
				</g>
				<g>
					<path id="SVGID_1_" style="fill:none;stroke:#020203;stroke-width:0.0473;stroke-miterlimit:10;" d="M15.389,8.508
						c0.223-0.059,0.525,0.012,0.684,0.182l-1.371,2.986l-0.488-0.131L15.389,8.508z M13.365,11.316l0.728,0.196l1.051-3.094
						c-0.231-0.211-0.621-0.239-1.033-0.193L13.365,11.316z M12.287,11.027l0.89,0.239l0.624-3.068
						c-0.285-0.223-1.133-0.218-1.464-0.096l-0.032,1.896L12.287,11.027z M15.117,11.889l1.391-2.982c0,0,0.012-0.065-0.077-0.111
						c-0.087-0.044-0.158-0.019-0.158-0.019l-1.472,3.043L15.117,11.889z M8.951,8.508C8.728,8.448,8.427,8.52,8.267,8.689
						l1.371,2.986l0.488-0.131L8.951,8.508z M10.23,8.225C9.817,8.179,9.428,8.207,9.197,8.418l1.051,3.094l0.728-0.196L10.23,8.225
						z M12.036,9.999l-0.032-1.896c-0.331-0.122-1.18-0.128-1.464,0.096l0.624,3.068l0.89-0.239L12.036,9.999z M9.54,11.821
						L8.068,8.778c0,0-0.072-0.025-0.158,0.019C7.821,8.842,7.833,8.907,7.833,8.907l1.391,2.982L9.54,11.821z"/>
				</g>
			</g>
			<g>
				<g>
					<path style="fill:#3D3D3B;" d="M16.2,8.489c-0.019-0.219-0.073-0.434-0.157-0.636c-0.084-0.203-0.201-0.39-0.337-0.561
						c-0.272-0.343-0.623-0.617-1.006-0.828c-0.769-0.421-1.65-0.608-2.523-0.62c-0.872-0.002-1.755,0.192-2.519,0.62
						c-0.38,0.214-0.73,0.49-1.003,0.832C8.38,7.636,8.192,8.051,8.145,8.489C8.182,8.05,8.36,7.627,8.631,7.278
						c0.271-0.35,0.621-0.634,1.003-0.855c0.383-0.223,0.801-0.379,1.23-0.485c0.429-0.106,0.872-0.154,1.314-0.156
						c0.442,0.009,0.883,0.059,1.313,0.164c0.429,0.105,0.848,0.258,1.233,0.477c0.384,0.218,0.736,0.5,1.006,0.851
						c0.133,0.176,0.247,0.368,0.327,0.574C16.137,8.052,16.186,8.27,16.2,8.489z"/>
				</g>
				<g>
					<path style="fill:#3D3D3B;" d="M15.263,8.223c-0.061-0.35-0.195-0.684-0.388-0.979c-0.191-0.296-0.44-0.553-0.724-0.76
						c-0.285-0.206-0.603-0.366-0.938-0.472c-0.335-0.106-0.686-0.162-1.037-0.168c-0.351,0-0.703,0.053-1.037,0.161
						c-0.335,0.107-0.651,0.27-0.934,0.479c-0.283,0.209-0.53,0.468-0.722,0.763C9.29,7.542,9.152,7.875,9.086,8.223
						c0.056-0.35,0.184-0.689,0.371-0.992c0.189-0.303,0.435-0.568,0.718-0.785c0.568-0.436,1.285-0.662,2.001-0.664
						c0.358,0.009,0.714,0.067,1.054,0.177c0.339,0.11,0.664,0.272,0.949,0.487c0.285,0.214,0.533,0.479,0.721,0.782
						C15.087,7.531,15.213,7.872,15.263,8.223z"/>
				</g>
				<g>
					<path style="fill:#3D3D3B;" d="M13.913,7.944c-0.022-0.12-0.05-0.238-0.085-0.354C13.793,7.474,13.75,7.361,13.7,7.25
						c-0.097-0.221-0.223-0.429-0.371-0.62c-0.148-0.19-0.317-0.365-0.509-0.509c-0.096-0.072-0.198-0.136-0.305-0.187
						c-0.107-0.05-0.222-0.088-0.337-0.091c-0.056-0.001-0.113,0.011-0.169,0.028c-0.056,0.017-0.111,0.04-0.164,0.067
						c-0.106,0.053-0.208,0.118-0.303,0.191c-0.191,0.146-0.361,0.319-0.512,0.507c-0.15,0.189-0.279,0.395-0.38,0.615
						c-0.051,0.11-0.096,0.222-0.132,0.338c-0.036,0.116-0.065,0.234-0.087,0.353c0.03-0.241,0.096-0.479,0.19-0.704
						c0.095-0.225,0.222-0.436,0.37-0.632c0.148-0.196,0.322-0.371,0.515-0.523c0.097-0.075,0.201-0.143,0.311-0.2
						c0.055-0.028,0.112-0.053,0.173-0.072c0.06-0.019,0.123-0.033,0.189-0.032c0.129,0.004,0.25,0.046,0.362,0.099
						c0.112,0.054,0.216,0.121,0.314,0.195c0.195,0.15,0.368,0.328,0.513,0.525c0.145,0.197,0.268,0.411,0.361,0.637
						C13.82,7.465,13.884,7.702,13.913,7.944z"/>
				</g>
			</g>
			<g>
				<polygon style="fill:#3D3D3B;" points="12.17,7.76 12.139,5.813 12.202,5.813 				"/>
			</g>
		</g>
		<g>
			<path style="fill:#F5DD15;stroke:#020203;stroke-width:0.0552;stroke-miterlimit:10;" d="M13.798,13.799l3.458-0.132
				l-0.709-0.526l0.657-0.563l-0.818-0.189l0.634-0.725L16.01,11.67l0.472-0.768l-3.022,0.364l1.021-2.246l-1.079,0.475
				l-0.314-1.047l-0.526,0.685L12.173,8.36l-0.406,0.805l-0.459-0.693L10.97,9.35l-0.777-0.483l0.81,2.414l-3.144-0.379l0.472,0.768
				l-1.009-0.005l0.634,0.725l-0.818,0.189l0.657,0.563l-0.709,0.526l3.454,0.132l-2.606,1.567l1.015,0.306l-0.362,0.958
				l0.821-0.161l-0.153,0.838l0.773-0.37l-0.008,0.87l0.693-0.524l0.314,0.773l1.142-3.763l1.142,3.763l0.314-0.773l0.693,0.524
				l-0.008-0.87l0.773,0.37L14.93,16.47l0.821,0.161l-0.362-0.958l1.015-0.306L13.798,13.799z"/>
			<path style="fill:#E02E1C;stroke:#020203;stroke-width:0.0552;stroke-miterlimit:10;" d="M16.117,13.156l0.509-0.436l-0.737-0.17
				l0.537-0.614l-0.898,0.005l0.434-0.706l-2.944,0.355l0.928-2.041l-0.714,0.314l-0.251-0.836l-0.476,0.62l-0.337-0.724
				l-0.378,0.763l-0.419-0.632L11.104,9.75l-0.419-0.261l0.708,2.109l-3.014-0.363l0.434,0.706l-0.898-0.005l0.537,0.614
				l-0.737,0.17l0.509,0.436l-0.367,0.272l3.625,0.117l-2.892,1.739l0.71,0.214l-0.294,0.776l0.735-0.144l-0.129,0.707l0.687-0.329
				l-0.007,0.755l0.536-0.405l0.16,0.395l1.179-3.883l1.179,3.883l0.161-0.395l0.536,0.405l-0.007-0.755l0.687,0.329l-0.129-0.707
				l0.735,0.144l-0.294-0.776l0.71-0.214l-2.752-1.655l-0.131-0.063l3.619-0.138L16.117,13.156z"/>
		</g>
		<g>
			<g id="&#x422;&#x435;&#x43B;&#x43E;_2_">
				<path style="fill:#F5DD12;stroke:#020203;stroke-width:0.0552;stroke-linejoin:round;stroke-miterlimit:10;" d="M11.321,11.536
					c0,0-0.501-1.105-1.107-1.536S9.398,9.53,9.398,9.53s0.121,0.445,0.257,0.522c0.214,0.121,0.389,0.249,0.524,0.349
					c0.135,0.1,0.317,0.326,0.317,0.326s-0.357-0.421-0.733-0.621c-0.376-0.201-1-0.382-1-0.382s0.125,0.286,0.381,0.512
					c0.256,0.226,0.631,0.332,0.81,0.456c0.195,0.136,0.426,0.33,0.426,0.33s-0.339-0.298-0.574-0.419
					c-0.236-0.12-0.902-0.202-0.902-0.202s0.135,0.261,0.291,0.406c0.155,0.145,0.34,0.206,0.614,0.322
					c0.341,0.145,0.566,0.301,0.566,0.301s-0.305-0.202-0.671-0.322c-0.366-0.12-0.601-0.156-0.601-0.156s0.238,0.543,0.502,0.559
					c0.433,0.027,0.712,0.268,0.712,0.268s-0.198-0.135-0.425-0.21c-0.227-0.075-0.647-0.005-0.647-0.005s0.243,0.33,0.475,0.357
					c0.166,0.019,0.212,0.043,0.352,0.094c0.066,0.024,0.218,0.08,0.218,0.08s-0.042-0.015-0.218-0.08
					c-0.113-0.042-0.211-0.065-0.322-0.075c-0.129-0.012-0.399,0.037-0.239,0.161c0.089,0.069,0.173,0.201,0.426,0.245
					c0.243,0.043,0.485,0.083,0.485,0.083S9.973,12.34,9.86,12.347c-0.113,0.008-0.296,0.015-0.26,0.083
					c0.02,0.038,0.104,0.225,0.33,0.258c0.226,0.033,0.438-0.005,0.438-0.005s-0.198,0.018-0.302,0.046
					c-0.143,0.039-0.205,0.144-0.205,0.144s0.054,0.117,0.25,0.149c0.392,0.064,0.738-0.201,0.738-0.201s0.739-0.192,0.747-0.207
					C11.602,12.598,11.321,11.536,11.321,11.536z"/>
				<path style="fill:#F5DD12;stroke:#020203;stroke-width:0.0552;stroke-linejoin:round;stroke-miterlimit:10;" d="M12.885,13.275
					c0,0-0.074,0.284-0.019,0.582c0.022,0.118,0.043,0.257,0.108,0.367c0.247,0.417,0.348,0.54,0.413,0.526
					c0.048-0.01,0.065-0.383-0.012-0.526c-0.09-0.167-0.242-0.511-0.242-0.511s0.222,0.606,0.455,0.809
					c0.153,0.134,0.194,0.174,0.236,0.16c0.043-0.014,0.044-0.127,0.012-0.383c-0.111-0.136-0.127-0.175-0.168-0.24
					c-0.108-0.167-0.265-0.503-0.265-0.503s0.16,0.324,0.265,0.503c0.08,0.137,0.209,0.296,0.262,0.346
					c0.124,0.117,0.219,0.167,0.259,0.155c0.04-0.013,0.017-0.354-0.029-0.475c-0.03-0.079-0.088-0.2-0.171-0.334
					c-0.114-0.183-0.429-0.473-0.429-0.473s0.307,0.293,0.429,0.473c0.09,0.133,0.151,0.291,0.201,0.339
					c0.116,0.113,0.145,0.142,0.18,0.102c0.035-0.04,0.057-0.27-0.047-0.452c-0.04-0.07-0.125-0.199-0.224-0.311
					c-0.136-0.153-0.48-0.399-0.48-0.399s0.355,0.26,0.48,0.399c0.079,0.088,0.146,0.184,0.183,0.244
					c0.05,0.034,0.145,0.058,0.16,0.035c0.032-0.047,0.007-0.12-0.017-0.167c-0.082-0.161-0.19-0.257-0.298-0.364
					c-0.175-0.175-0.507-0.391-0.507-0.391s0.515,0.158,0.731,0.104c0.226-0.056,0.305-0.158,0.305-0.158s-0.131-0.141-0.359-0.139
					c-0.093,0.001-0.204,0.018-0.313,0.02c-0.148,0.003-0.338-0.054-0.338-0.054s0.219,0.057,0.338,0.054
					c0.166-0.004,0.337-0.023,0.422-0.04c0.29-0.056,0.503-0.258,0.503-0.258s-0.148-0.161-0.418-0.093
					c-0.052,0.013-0.161,0.026-0.317,0.06c-0.314,0.069-0.726-0.025-0.726-0.025s0.408,0.073,0.726,0.025
					c0.24-0.036,0.485-0.111,0.602-0.172c0.233-0.12,0.267-0.243,0.267-0.243S14.752,11.8,14.59,11.83
					c-0.066,0.012-0.213,0.067-0.362,0.11c-0.282,0.082-0.728,0.051-0.728,0.051s0.427,0.03,0.719-0.049
					c0.15-0.041,0.303-0.104,0.403-0.142c0.248-0.094,0.594-0.335,0.594-0.335s-0.41-0.183-0.582-0.091
					c-0.074,0.039-0.194,0.105-0.323,0.162c-0.192,0.084-0.644,0.163-0.644,0.163s0.428-0.067,0.644-0.163
					c0.246-0.11,0.529-0.268,0.611-0.364c0.121-0.142,0.331-0.342,0.331-0.342s-0.436,0-0.556,0.084
					c-0.061,0.043-0.175,0.124-0.298,0.202c-0.196,0.126-0.68,0.274-0.68,0.274s0.478-0.146,0.68-0.274
					c0.139-0.088,0.271-0.194,0.341-0.249c0.173-0.135,0.75-0.651,0.75-0.651s-0.511,0.017-0.711,0.137
					c-0.199,0.12-0.956,0.682-0.956,0.682s0.36-0.27,0.578-0.422c0.217-0.151,0.389-0.296,0.63-0.484
					c0.241-0.188,0.718-0.73,0.718-0.73s-0.81,0.141-1.136,0.483c-0.289,0.303-0.833,0.911-0.833,0.911s0.502-0.559,0.735-0.803
					c0.233-0.245,0.455-0.572,0.455-0.572s-0.602,0.163-0.845,0.406c-0.235,0.235-0.498,0.52-0.633,0.817
					C13.429,10.786,12.885,13.275,12.885,13.275z"/>
				<path style="fill:#F5DD12;stroke:#020203;stroke-width:0.0552;stroke-linejoin:round;stroke-miterlimit:10;" d="M10.589,13.169
					c0,0-0.333,0.228-0.389,0.466c-0.055,0.238-0.021,0.346-0.021,0.346l0.116-0.183c0,0-0.11,0.222-0.116,0.376
					c-0.003,0.063-0.002,0.141,0.02,0.16c0.022,0.019,0.222-0.275,0.222-0.275s-0.11,0.125-0.128,0.343
					c-0.01,0.121,0.052,0.193,0.084,0.219c0.016,0.012,0.058-0.075,0.092-0.194c0.036-0.125,0.15-0.24,0.15-0.24
					s-0.098,0.115-0.118,0.23c-0.043,0.242,0.045,0.335,0.067,0.335c0.012,0,0.074-0.135,0.169-0.283
					c0.091-0.141,0.188-0.169,0.188-0.169s-0.088,0.063-0.142,0.183c-0.014,0.03-0.064,0.113-0.043,0.243
					c0.014,0.083,0.376-0.172,0.404-0.22s0.499-0.545,0.499-0.545L10.589,13.169z"/>
				<path style="fill:#F5DD12;stroke:#020203;stroke-width:0.0552;stroke-linejoin:round;stroke-miterlimit:10;" d="M10.89,12.56
					c0,0-0.256,0.11-0.346,0.278c-0.09,0.168-0.103,0.339-0.103,0.339l0.145-0.15c0,0-0.105,0.193-0.145,0.286
					c-0.045,0.104,0,0.208,0,0.208l0.171-0.193c0,0-0.138,0.211-0.163,0.353c-0.024,0.139,0.047,0.212,0.047,0.212
					s0.02-0.063,0.068-0.124c0.073-0.093,0.176-0.167,0.176-0.167s-0.07,0.082-0.108,0.214s0.021,0.243,0.021,0.243
					s0.045-0.094,0.121-0.179c0.076-0.085,0.15-0.132,0.15-0.132s-0.048,0.063-0.053,0.144c-0.005,0.073,0.014,0.167,0.014,0.167
					s0.084-0.092,0.118-0.128c0.072-0.076,0.12-0.04,0.12-0.04s-0.026,0.032-0.035,0.082c-0.009,0.05,0.002,0.134,0.002,0.134
					s0.15-0.216,0.295-0.17c0.227,0.072,0.275-0.312,0.275-0.312L10.89,12.56z"/>
				<path style="fill:#F5DD12;stroke:#020203;stroke-width:0.0552;stroke-linejoin:round;stroke-miterlimit:10;" d="M11.292,11.944
					c0,0,0.271-0.403,0.27-0.445c-0.004-0.135-0.03-0.433-0.19-0.571c-0.211-0.181-0.416-0.542-0.416-0.542
					s-0.171,0.425,0.003,0.644c0.177,0.224,0.273,0.273,0.273,0.273c-0.001-0.001-0.165-0.14-0.232-0.217
					c-0.083-0.095-0.147-0.244-0.147-0.244s-0.161,0.12-0.088,0.318c0.055,0.15,0.148,0.243,0.148,0.243l-0.201-0.192
					c0,0-0.031,0.069-0.031,0.148c0.001,0.118,0.152,0.263,0.152,0.263l0.027,0.116L11.292,11.944"/>
				<path style="fill:#F5DD12;stroke:#020203;stroke-width:0.0552;stroke-linejoin:round;stroke-miterlimit:10;" d="M12.304,11.512
					c0,0,0.107,0.043,0.22,0.191c0.109,0.142,0.079,0.436,0.079,0.436s0.124-0.289,0.114-0.577
					c-0.016-0.459,0.013-0.569,0.251-0.823c0.267-0.284,0.753-0.463,0.753-0.463s-0.056,0.066-0.152,0.256
					c-0.119,0.236-0.06,0.417-0.06,0.417s-0.631,2.641-0.641,2.832c-0.011,0.205,0.076,0.385,0.076,0.385s-0.139-0.07-0.242-0.02
					c0.004-0.102-0.238-0.036-0.238-0.036l-0.137,0.014l-0.149,0.231l-0.242-0.162c0,0-0.328-0.155-0.366-0.027
					c-0.102-0.045-0.081-0.33-0.081-0.33s-0.018,0.07-0.045,0.153c-0.094-0.008-0.086-0.256-0.086-0.256s-0.046,0.039-0.097,0.123
					c-0.064-0.083-0.033-0.304-0.033-0.304c-0.083,0.03-0.098,0.049-0.139,0.139c-0.049-0.128-0.004-0.339-0.004-0.339
					c-0.045,0.004-0.15,0.148-0.15,0.148c-0.038-0.089,0.045-0.332,0.045-0.332s-0.056,0.049-0.134,0.117
					c-0.036-0.083,0.047-0.301,0.047-0.301c-0.038-0.015-0.132,0.102-0.132,0.102c-0.026-0.123,0.105-0.297,0.105-0.297
					c-0.045-0.023-0.158,0.071-0.158,0.071c-0.008-0.083,0.137-0.241,0.137-0.241c-0.036-0.015-0.187,0.082-0.187,0.082
					s0.003-0.1,0.039-0.195c0.047-0.124,0.148-0.207,0.148-0.207l0.107-0.35c0,0,0.016-0.234,0.405-0.302
					c0.389-0.068,0.757-0.165,0.757-0.165L12.304,11.512z"/>
				<path style="fill:#F5DD12;stroke:#020203;stroke-width:0.0552;stroke-linejoin:round;stroke-miterlimit:10;" d="M12.565,12.944
					c0,0-0.093,0.226,0,0.454c0.093,0.228,0.31,0.364,0.318,0.273c0.014-0.164-0.044-0.198-0.076-0.296
					c-0.033-0.098-0.111-0.369-0.111-0.369s0.04,0.196,0.111,0.369c0.031,0.076,0.081,0.147,0.115,0.195
					c0.11,0.158,0.114,0.139,0.169,0.182c0.09,0.07,0.16-0.204,0.09-0.286c-0.036-0.042-0.106-0.125-0.158-0.221
					c-0.082-0.15-0.123-0.366-0.123-0.366s0.034,0.217,0.123,0.366c0.06,0.1,0.131,0.181,0.164,0.23
					c0.034,0.05,0.067,0.072,0.126,0.127c0.128,0.119,0.15-0.165,0.079-0.279c-0.016-0.025-0.092-0.106-0.161-0.213
					c-0.109-0.172-0.242-0.405-0.242-0.405s0.118,0.223,0.242,0.405c0.081,0.119,0.187,0.223,0.23,0.263
					c0.138,0.129,0.139-0.195,0.093-0.266c-0.051-0.079-0.112-0.158-0.168-0.228c-0.103-0.127-0.193-0.222-0.193-0.222
					s0.102,0.111,0.193,0.222c0.073,0.09,0.137,0.183,0.146,0.195c0.048,0.065,0.159-0.088,0.085-0.228
					c-0.063-0.119-0.271-0.372-0.271-0.372s0.208,0.274,0.269,0.291c0.115,0.033,0.03-0.311-0.068-0.399
					c-0.078-0.07-0.326-0.228-0.326-0.228L12.565,12.944z"/>
				<path style="fill:#F5DD12;stroke:#020203;stroke-width:0.0552;stroke-linejoin:round;stroke-miterlimit:10;" d="M13.087,11.158
					c0,0,0.028,0.627-0.176,0.988c-0.112,0.2-0.339,0.468-0.426,0.567c-0.023,0.026-0.031,0.062-0.022,0.096
					c0.021,0.075,0.07,0.2,0.165,0.218c0.137,0.026,0.182-0.147,0.138-0.155c-0.129-0.025-0.227-0.221-0.227-0.221
					s0.044,0.1,0.128,0.168c0.053,0.043,0.137,0.068,0.187,0.063c0.225-0.024,0.121-0.167,0.026-0.184
					c-0.151-0.027-0.225-0.187-0.225-0.187s0.062,0.148,0.225,0.187c0.107,0.026,0.234,0.034,0.275-0.002
					c0.092-0.081,0.086-0.15,0.086-0.15s-0.098,0.005-0.191-0.008c-0.146-0.02-0.277-0.181-0.277-0.181s0.115,0.167,0.312,0.185
					c0.154,0.013,0.277-0.01,0.33-0.107c0.053-0.097,0.021-0.143,0.021-0.143S13.309,12.3,13.2,12.3
					c-0.176,0-0.315-0.109-0.315-0.109s0.139,0.109,0.36,0.109c0.145,0,0.279-0.11,0.31-0.18c0.031-0.07-0.018-0.072-0.081-0.074
					c-0.063-0.002-0.169,0.005-0.216,0.003c-0.078-0.004-0.276-0.063-0.276-0.063s0.19,0.067,0.367,0.063
					c0.132-0.003,0.264-0.088,0.307-0.167c0.029-0.053,0.005-0.114-0.1-0.092s-0.167,0.034-0.239,0.034s-0.282-0.029-0.282-0.029
					s0.226,0.03,0.313,0.028c0.131-0.003,0.324-0.051,0.374-0.108c0.05-0.058,0.048-0.145-0.031-0.149
					c-0.079-0.004-0.085,0.012-0.257,0.034c-0.162,0.02-0.365-0.014-0.365-0.014s0.245,0.024,0.365,0.014
					c0.144-0.011,0.293-0.062,0.336-0.126c0.043-0.064,0.076-0.185-0.001-0.193c-0.077-0.008-0.172,0.067-0.319,0.095
					c-0.158,0.029-0.365,0.015-0.365,0.015s0.21,0.024,0.376-0.016c0.138-0.034,0.245-0.078,0.32-0.153
					c0.075-0.075,0.116-0.146,0.103-0.228c-0.01-0.065-0.174,0.005-0.291,0.074c-0.092,0.055-0.496,0.178-0.496,0.178
					s0.39-0.121,0.496-0.178c0.124-0.068,0.258-0.15,0.29-0.201c0.032-0.051,0.055-0.105-0.023-0.162
					c-0.077-0.056-0.336,0.079-0.443,0.154C13.222,10.995,13.087,11.158,13.087,11.158z"/>
				<path style="fill:#F5DD12;stroke:#020203;stroke-width:0.0552;stroke-linejoin:round;stroke-miterlimit:10;" d="M11.637,14.661
					c0,0-0.082,0.131-0.28,0.568c-0.106,0.233,0.081,0.274,0.212,0.305c0.004-0.093,0.012-0.157,0.03-0.224
					c0.031-0.117,0.093-0.192,0.093-0.192s-0.062,0.084-0.093,0.192c-0.037,0.129-0.014,0.314,0.016,0.377
					c0.063,0.131,0.175,0.155,0.263,0.123c0.088-0.031,0.2-0.713,0.2-0.713s0.199,0.196,0.157,0.236
					c-0.042,0.04-0.018,0.298,0.057,0.464c0.067,0.15,0.17,0.173,0.258,0.147c0.072-0.022-0.016-0.37-0.016-0.37
					s0.065,0.36,0.427,0.368c0.112,0.002-0.191-0.792-0.191-0.792s0.104,0.303,0.243,0.599c0.059,0.125,0.095,0.232,0.422,0.29
					c0.228,0.04-0.174-0.621-0.387-0.965c-0.158-0.256-0.289-0.451-0.289-0.451L11.637,14.661z"/>
				<g>
					<path style="fill:#F4E958;" d="M12.648,12.04c0,0-0.154,0.328-0.154,0.52"/>
					<path style="fill:#020203;" d="M12.65,12.041c-0.005,0.047-0.017,0.091-0.03,0.135c-0.013,0.043-0.035,0.083-0.051,0.125
						c-0.016,0.042-0.032,0.084-0.044,0.128c-0.013,0.043-0.024,0.087-0.028,0.132h-0.005c-0.004-0.046,0.001-0.092,0.007-0.138
						c0.007-0.046,0.018-0.091,0.029-0.135c0.012-0.044,0.021-0.09,0.042-0.132c0.02-0.041,0.043-0.082,0.076-0.117L12.65,12.041z"
						/>
				</g>
			</g>
			<path style="fill:#EEEDED;stroke:#020203;stroke-width:0.0589;stroke-linejoin:round;stroke-miterlimit:10;" d="M12.124,18.499
				l-0.349-0.639l0.075-3.152l0.03-0.331c0,0,0.004-0.446,0.004-0.647c0-0.339,0.065-0.614,0.065-0.614h0.234
				c0,0,0.08,0.469,0.08,0.788c0,0.302,0,0.447,0,0.447l0.045,0.256l0.023,0.102l0.113,3.182L12.124,18.499z"/>
			<path style="fill:#EEEDED;stroke:#020203;stroke-width:0.0589;stroke-linejoin:round;stroke-miterlimit:10;" d="M11.868,13.115
				h0.396c0,0-0.13-0.172-0.198-0.172C12.02,12.943,11.868,13.115,11.868,13.115z"/>
			<path style="fill:#F4E958;stroke:#020203;stroke-width:0.0589;stroke-linejoin:round;stroke-miterlimit:10;" d="M11.912,13.329
				c0.046-0.085,0.29-0.146,0.29-0.146"/>
			<path style="fill:#F4E958;stroke:#020203;stroke-width:0.0589;stroke-linejoin:round;stroke-miterlimit:10;" d="M11.892,13.531
				c0.045-0.098,0.341-0.196,0.341-0.196"/>
			<path style="fill:#F4E958;stroke:#020203;stroke-width:0.0589;stroke-linejoin:round;stroke-miterlimit:10;" d="M11.892,13.718
				c0.083-0.084,0.352-0.186,0.352-0.186"/>
			<path style="fill:#F4E958;stroke:#020203;stroke-width:0.0589;stroke-linejoin:round;stroke-miterlimit:10;" d="M12.001,13.911"
				/>
			<path style="fill:#F4E958;stroke:#020203;stroke-width:0.0589;stroke-linejoin:round;stroke-miterlimit:10;" d="M11.879,13.92
				c0.074-0.112,0.385-0.223,0.385-0.223"/>
			<path style="fill:none;stroke:#020203;stroke-width:0.0589;stroke-linejoin:round;stroke-miterlimit:10;" d="M11.883,14.095
				c0.045-0.088,0.327-0.196,0.382-0.208"/>
			<path style="fill:#F4E958;stroke:#020203;stroke-width:0.0589;stroke-linejoin:round;stroke-miterlimit:10;" d="M11.883,14.283
				c0.03-0.082,0.382-0.199,0.382-0.199"/>
			<g>
				<line style="fill:none;" x1="12.105" y1="14.755" x2="12.136" y2="18.223"/>
				<polygon style="fill:#020203;" points="12.168,14.754 12.136,18.223 12.041,14.755 				"/>
			</g>
			<path style="fill:#EEEDED;stroke:#020203;stroke-width:0.0456;stroke-linejoin:round;stroke-miterlimit:10;" d="M11.072,14.556
				c0,0.166,0.159,0.166,0.159,0.166l0.718-0.055l0.156,0.146l0.175-0.15l0.707,0.039c0,0,0.125-0.028,0.125-0.148
				c0-0.15-0.17-0.181-0.17-0.181l-0.687,0.05l-0.151-0.104l-0.15,0.106l-0.728-0.056C11.227,14.37,11.072,14.381,11.072,14.556z"/>
			<g id="&#x41D;&#x43E;&#x433;&#x438;_1_">
				<path style="fill:#F5DD12;stroke:#020203;stroke-width:0.0453;stroke-linejoin:round;stroke-miterlimit:10;" d="M12.327,14.123
					c-0.027,0.063-0.036,0.325-0.036,0.325s0.02,0.086,0.044,0.139c0.02,0.043,0.045,0.035,0.08,0.054c0,0,0-0.028,0-0.079
					s0.017-0.108,0.017-0.108l0.045-0.161l0.052-0.217l-0.052,0.217l0.005,0.152c0,0-0.005,0.077,0.014,0.125
					c0.017,0.044,0.079,0.098,0.079,0.098s0.022-0.032,0.022-0.096s0.053-0.135,0.053-0.135l0.09-0.338l-0.09,0.338
					c0,0-0.002,0.092,0.022,0.142c0.022,0.047,0.103,0.102,0.103,0.102s-0.008-0.033-0.008-0.101s0.037-0.145,0.037-0.145
					s0.068-0.093,0.085-0.126c0.024-0.047,0.048-0.137,0.023-0.205c-0.003-0.008-0.026-0.022-0.08-0.033
					c-0.046-0.009-0.093,0.029-0.093,0.029s-0.05-0.059-0.121-0.057c-0.047,0.001-0.09,0.033-0.09,0.033s-0.042-0.035-0.079-0.035
					C12.376,14.04,12.345,14.079,12.327,14.123z"/>
				<path style="fill:#F5DD12;stroke:#020203;stroke-width:0.0453;stroke-linejoin:round;stroke-miterlimit:10;" d="M11.297,14.172
					c-0.005,0.07-0.098,0.319-0.044,0.393c0.039,0.054,0.138,0.099,0.138,0.099s-0.028-0.053-0.028-0.117
					c0-0.065,0.05-0.152,0.05-0.152l0.069-0.298l-0.07,0.309c0,0,0.039-0.011,0.039,0.073c0,0.115,0.139,0.185,0.139,0.185
					s-0.028-0.052-0.028-0.11c0-0.058,0.039-0.149,0.039-0.149l0.073-0.287l-0.032,0.146L11.6,14.405c0,0,0.07-0.038,0.062,0.077
					c-0.01,0.144,0.135,0.177,0.14,0.159c0,0-0.021-0.067-0.021-0.112c0-0.045,0.025-0.12,0.025-0.12l0.034-0.165l0.017-0.133
					c0,0-0.05-0.038-0.089-0.038c-0.053,0-0.092,0.038-0.092,0.038s-0.038-0.052-0.1-0.058c-0.059,0-0.094,0.042-0.094,0.042
					s-0.06-0.038-0.101-0.028C11.316,14.084,11.302,14.097,11.297,14.172z"/>
				
					<ellipse transform="matrix(0.0854 -0.9963 0.9963 0.0854 -3.9418 24.3686)" style="fill:#F5DD12;stroke:#020203;stroke-width:0.0473;stroke-miterlimit:9.9995;" cx="11.302" cy="14.331" rx="0.089" ry="0.116"/>
				
					<ellipse transform="matrix(0.0854 -0.9963 0.9963 0.0854 -3.7747 24.6071)" style="fill:#F5DD12;stroke:#020203;stroke-width:0.0473;stroke-miterlimit:9.9995;" cx="11.516" cy="14.36" rx="0.089" ry="0.116"/>
				
					<ellipse transform="matrix(0.0854 -0.9963 0.9963 0.0854 -3.5799 24.8596)" style="fill:#F5DD12;stroke:#020203;stroke-width:0.0473;stroke-miterlimit:9.9995;" cx="11.751" cy="14.38" rx="0.089" ry="0.116"/>
				
					<ellipse style="fill:#F5DD12;stroke:#020203;stroke-width:0.0473;stroke-miterlimit:10;" cx="12.355" cy="14.354" rx="0.11" ry="0.08"/>
				
					<ellipse style="fill:#F5DD12;stroke:#020203;stroke-width:0.0473;stroke-miterlimit:10;" cx="12.552" cy="14.363" rx="0.103" ry="0.08"/>
				
					<ellipse style="fill:#F5DD12;stroke:#020203;stroke-width:0.0473;stroke-miterlimit:10;" cx="12.75" cy="14.36" rx="0.103" ry="0.08"/>
			</g>
			<g id="&#x41C;&#x43E;&#x441;&#x44C;&#x43A;&#x430;_2_">
				<g>
					<path style="fill:#020203;" d="M12.291,12.872c-0.04-0.028-0.077-0.058-0.116-0.088c-0.038-0.03-0.076-0.06-0.113-0.091
						l0.03-0.002c-0.015,0.02-0.028,0.043-0.037,0.065c-0.01,0.022-0.011,0.045-0.004,0.056c0.008,0.012,0.005,0.028-0.007,0.036
						c-0.008,0.006-0.019,0.006-0.027,0.001l-0.002-0.001c-0.039-0.023-0.074-0.053-0.103-0.087
						c-0.015-0.017-0.028-0.035-0.04-0.053c-0.012-0.019-0.023-0.037-0.033-0.059l0.047,0.004c-0.031,0.052-0.059,0.12-0.039,0.169
						l0.001,0.004c0.004,0.01,0,0.023-0.011,0.027c-0.005,0.002-0.011,0.002-0.015,0c-0.033-0.012-0.051-0.035-0.067-0.056
						c-0.015-0.022-0.028-0.044-0.04-0.067c-0.021-0.047-0.04-0.094-0.053-0.143c0.024,0.045,0.048,0.089,0.077,0.13
						c0.014,0.021,0.028,0.04,0.044,0.058c0.016,0.017,0.034,0.033,0.05,0.037l-0.025,0.031c-0.021-0.038-0.019-0.08-0.01-0.116
						c0.009-0.037,0.022-0.069,0.042-0.102c0.007-0.012,0.024-0.017,0.036-0.009c0.005,0.003,0.008,0.007,0.01,0.011l0.001,0.002
						c0.008,0.016,0.018,0.035,0.03,0.051c0.011,0.017,0.023,0.032,0.036,0.048c0.026,0.031,0.056,0.057,0.089,0.078l-0.036,0.036
						c-0.01-0.018-0.012-0.039-0.01-0.055c0.002-0.017,0.008-0.032,0.014-0.046c0.013-0.028,0.03-0.051,0.05-0.073l0.001-0.001
						c0.007-0.008,0.02-0.009,0.028-0.002l0.001,0.001c0.035,0.034,0.068,0.068,0.102,0.103
						C12.225,12.801,12.259,12.836,12.291,12.872z"/>
				</g>
				<g>
					<path style="fill:#020203;" d="M11.505,12.623c-0.028,0.041-0.055,0.082-0.082,0.123c-0.026,0.041-0.052,0.083-0.069,0.124
						c-0.005,0.013-0.019,0.019-0.032,0.014c-0.009-0.004-0.015-0.013-0.015-0.022v-0.001c-0.001-0.022-0.004-0.043-0.01-0.063
						c-0.003-0.01-0.007-0.019-0.012-0.028c-0.004-0.008-0.012-0.018-0.016-0.021l0.029,0.004c-0.009,0.005-0.025,0.019-0.035,0.032
						c-0.012,0.013-0.022,0.028-0.031,0.044c-0.019,0.031-0.035,0.065-0.047,0.101c-0.005,0.014-0.02,0.021-0.034,0.016
						c-0.007-0.002-0.012-0.007-0.015-0.013c-0.009-0.018-0.018-0.037-0.03-0.052c-0.006-0.007-0.012-0.014-0.018-0.019
						c-0.005-0.005-0.015-0.007-0.012-0.008l0.006-0.003c-0.006,0.004-0.014,0.011-0.02,0.018c-0.007,0.007-0.012,0.015-0.018,0.024
						c-0.011,0.017-0.017,0.037-0.02,0.059c-0.007-0.021-0.008-0.045-0.002-0.068c0.002-0.012,0.007-0.023,0.013-0.033
						c0.006-0.011,0.012-0.02,0.022-0.031c0.002-0.002,0.004-0.003,0.006-0.003c0.025-0.007,0.037,0.002,0.05,0.008
						c0.013,0.007,0.022,0.016,0.031,0.026c0.017,0.019,0.03,0.039,0.04,0.06l-0.049,0.003c0.013-0.038,0.029-0.076,0.051-0.112
						c0.011-0.018,0.023-0.035,0.037-0.051c0.015-0.016,0.028-0.031,0.053-0.045c0.01-0.005,0.021-0.004,0.029,0.004
						c0.014,0.013,0.02,0.023,0.027,0.036c0.007,0.012,0.012,0.025,0.016,0.038c0.007,0.026,0.01,0.053,0.01,0.079l-0.047-0.009
						c0.023-0.049,0.055-0.088,0.088-0.125C11.43,12.689,11.466,12.655,11.505,12.623z"/>
				</g>
				<g>
					<path style="fill:#F5DD0E;" d="M11.837,11.565c-0.144,0.04-0.247,0.198-0.275,0.295c-0.02,0.068-0.019,0.169,0.052,0.278
						c0.137,0.212,0.32,0.292,0.32,0.292s-0.028-0.132-0.019-0.171c0.088,0.023,0.258,0.171,0.258,0.171s-0.028-0.126-0.023-0.209
						c0.12,0.064,0.179,0.166,0.179,0.166s0.032-0.164,0-0.205c0.023-0.043,0.111,0.002,0.111,0.002s-0.033-0.086-0.072-0.177
						c0.025-0.001,0.098,0.024,0.098,0.024s-0.032-0.222-0.112-0.311c-0.083-0.092-0.149-0.189-0.496-0.198
						c-0.084-0.002-0.342,0.035-0.443,0.048c-0.202,0.027-0.367,0.092-0.392,0.111c-0.049,0.038-0.184,0.051-0.225,0.086
						c-0.058,0.051-0.139,0.098-0.175,0.244c-0.019,0.075,0.011,0.268,0.011,0.268l0.04-0.047c0,0,0.003,0.083,0.01,0.143
						c0.002,0.021,0.047-0.059,0.047-0.059l0.014,0.137c0,0,0.064-0.059,0.113-0.078c0.038-0.014,0.031,0.101,0.031,0.101
						s0.062-0.054,0.14-0.098c0.011,0.021,0.004,0.122,0.004,0.122s0.187-0.213,0.187-0.301"/>
					<g>
						<path style="fill:#020203;" d="M11.837,11.565c-0.092,0.029-0.163,0.101-0.214,0.18c-0.025,0.04-0.046,0.083-0.057,0.128
							c-0.01,0.045-0.008,0.093,0.003,0.138c0.023,0.091,0.085,0.167,0.147,0.236c0.064,0.068,0.141,0.128,0.223,0.167l-0.023,0.019
							c-0.006-0.029-0.012-0.057-0.016-0.086c-0.002-0.015-0.004-0.029-0.005-0.044c-0.001-0.015-0.002-0.03,0.001-0.049
							l0.003-0.019l0.019,0.005c0.029,0.008,0.052,0.02,0.076,0.034c0.023,0.013,0.045,0.028,0.067,0.043
							c0.043,0.03,0.084,0.062,0.125,0.096l-0.035,0.021c-0.015-0.07-0.028-0.14-0.025-0.215l0.001-0.036l0.033,0.018
							c0.038,0.02,0.073,0.045,0.105,0.075c0.016,0.014,0.031,0.03,0.045,0.046c0.014,0.017,0.027,0.033,0.039,0.053l-0.044,0.007
							c0.006-0.033,0.01-0.067,0.012-0.1c0.001-0.017,0.001-0.033,0-0.049c-0.001-0.015-0.005-0.032-0.009-0.036l-0.01-0.012
							l0.007-0.015c0.008-0.016,0.025-0.027,0.04-0.03c0.015-0.003,0.028-0.002,0.04-0.001c0.024,0.004,0.044,0.011,0.065,0.021
							l-0.035,0.031l-0.072-0.176l-0.015-0.036l0.038,0c0.013,0,0.022,0.002,0.031,0.004l0.026,0.006
							c0.017,0.004,0.033,0.009,0.05,0.015l-0.034,0.028c-0.008-0.051-0.02-0.103-0.036-0.152c-0.016-0.049-0.035-0.098-0.063-0.136
							c-0.033-0.039-0.068-0.079-0.108-0.108c-0.04-0.028-0.087-0.049-0.136-0.061c-0.049-0.013-0.101-0.021-0.153-0.025
							c-0.026-0.003-0.052-0.003-0.079-0.005c-0.025-0.001-0.051,0.001-0.077,0.003c-0.105,0.009-0.211,0.023-0.317,0.037
							c-0.106,0.012-0.209,0.031-0.31,0.063c-0.05,0.017-0.099,0.031-0.143,0.061c-0.054,0.027-0.107,0.034-0.156,0.051
							c-0.012,0.004-0.024,0.008-0.034,0.013c-0.01,0.005-0.016,0.01-0.028,0.02c-0.021,0.017-0.042,0.033-0.06,0.051
							c-0.037,0.035-0.065,0.077-0.083,0.124c-0.009,0.024-0.017,0.048-0.019,0.072c-0.002,0.025-0.002,0.051-0.001,0.077
							c0.002,0.052,0.008,0.105,0.015,0.158l-0.031-0.009l0.04-0.047l0.029-0.034l0.002,0.044c0.001,0.037,0.003,0.075,0.006,0.112
							l0.002,0.028c0,0.001,0,0.004,0,0.002c0,0,0-0.002-0.002-0.004c-0.001-0.002-0.006-0.006-0.01-0.006
							c-0.008,0-0.007,0.002-0.008,0.002l0.001-0.001c0.002-0.002,0.005-0.005,0.007-0.009c0.01-0.014,0.02-0.03,0.029-0.046
							l0.024-0.041l0.004,0.047l0.013,0.137l-0.023-0.009c0.033-0.029,0.067-0.056,0.108-0.075c0.006-0.002,0.009-0.005,0.02-0.006
							c0.011,0,0.019,0.008,0.023,0.013c0.008,0.013,0.009,0.024,0.011,0.035c0.003,0.023,0.003,0.044,0.002,0.066l-0.017-0.008
							c0.045-0.037,0.093-0.069,0.143-0.097l0.008-0.004l0.003,0.008c0.005,0.013,0.005,0.023,0.006,0.033
							c0.001,0.011,0,0.021,0,0.031c0,0.021-0.002,0.041-0.003,0.062l-0.011-0.005c0.039-0.044,0.077-0.091,0.112-0.139
							c0.017-0.024,0.034-0.049,0.049-0.075c0.014-0.026,0.028-0.053,0.03-0.083c-0.001,0.03-0.014,0.058-0.027,0.085
							c-0.014,0.027-0.03,0.052-0.046,0.077c-0.033,0.05-0.07,0.097-0.108,0.144l-0.012,0.014l0.001-0.019
							c0.001-0.02,0.002-0.041,0.002-0.061c0-0.01,0-0.02-0.001-0.03c-0.001-0.01-0.002-0.021-0.005-0.027l0.011,0.003
							c-0.049,0.028-0.095,0.062-0.137,0.099l-0.018,0.016l0.001-0.024c0.001-0.02,0-0.042-0.003-0.062
							c-0.002-0.01-0.004-0.02-0.008-0.025c-0.002-0.003-0.003-0.003-0.003-0.002c0,0-0.006,0.002-0.01,0.004
							c-0.036,0.018-0.069,0.045-0.1,0.073l-0.02,0.018l-0.003-0.027l-0.015-0.137l0.028,0.006c-0.01,0.017-0.019,0.033-0.031,0.05
							c-0.003,0.004-0.006,0.008-0.011,0.013c-0.001,0.001-0.003,0.002-0.005,0.004c-0.002,0.001-0.004,0.004-0.014,0.004
							c-0.005,0-0.011-0.005-0.013-0.008c-0.002-0.003-0.003-0.006-0.003-0.007c-0.001-0.004-0.001-0.004-0.001-0.005l-0.003-0.028
							c-0.004-0.038-0.006-0.075-0.008-0.113l0.03,0.01l-0.039,0.048l-0.025,0.03l-0.006-0.039
							c-0.008-0.054-0.015-0.107-0.018-0.161c-0.001-0.027-0.002-0.054,0-0.083c0.002-0.03,0.011-0.057,0.02-0.083
							c0.019-0.053,0.05-0.103,0.091-0.142c0.02-0.02,0.041-0.037,0.061-0.054c0.005-0.005,0.008-0.008,0.016-0.013
							c0.007-0.006,0.014-0.009,0.021-0.013c0.014-0.007,0.027-0.012,0.04-0.016c0.052-0.017,0.106-0.027,0.148-0.048
							c0.006-0.003,0.008-0.005,0.014-0.009c0.008-0.006,0.014-0.008,0.021-0.012c0.013-0.006,0.026-0.012,0.038-0.017
							c0.026-0.01,0.051-0.019,0.077-0.027c0.103-0.033,0.211-0.054,0.317-0.067c0.106-0.014,0.212-0.029,0.32-0.039
							c0.027-0.002,0.055-0.004,0.083-0.003c0.027,0.001,0.054,0.002,0.081,0.004c0.054,0.004,0.109,0.011,0.163,0.025
							c0.054,0.014,0.108,0.036,0.154,0.069c0.047,0.035,0.082,0.076,0.118,0.119c0.036,0.048,0.055,0.101,0.071,0.153
							c0.016,0.053,0.028,0.105,0.036,0.16l0.007,0.042l-0.04-0.013c-0.015-0.005-0.031-0.01-0.047-0.014l-0.023-0.006
							c-0.007-0.002-0.016-0.003-0.019-0.003l0.023-0.036l0.072,0.178l0.024,0.06l-0.059-0.029c-0.015-0.008-0.034-0.014-0.05-0.017
							c-0.008-0.001-0.016-0.001-0.02,0c-0.005,0.001-0.006,0.002-0.007,0.004l-0.002-0.026c0.016,0.024,0.016,0.044,0.018,0.063
							c0.001,0.019,0.001,0.037,0,0.055c-0.002,0.036-0.007,0.071-0.014,0.106l-0.012,0.062l-0.033-0.054
							c-0.009-0.015-0.021-0.031-0.034-0.046c-0.013-0.015-0.026-0.029-0.04-0.042c-0.029-0.027-0.061-0.05-0.095-0.068l0.034-0.019
							c-0.004,0.065,0.007,0.136,0.02,0.203l0.012,0.062l-0.047-0.041c-0.038-0.034-0.078-0.066-0.12-0.096
							c-0.021-0.015-0.042-0.029-0.063-0.042c-0.021-0.013-0.044-0.025-0.065-0.031l0.022-0.014
							c-0.002,0.009-0.002,0.024-0.001,0.037c0.001,0.014,0.002,0.028,0.004,0.042c0.004,0.028,0.009,0.056,0.014,0.084l0.007,0.034
							l-0.03-0.015c-0.089-0.045-0.165-0.107-0.23-0.179c-0.033-0.036-0.062-0.075-0.088-0.116
							c-0.027-0.041-0.047-0.087-0.058-0.135c-0.011-0.048-0.011-0.099,0.001-0.146c0.013-0.048,0.036-0.091,0.063-0.131
							C11.668,11.66,11.744,11.59,11.837,11.565z"/>
					</g>
				</g>
				<g id="&#x41A;&#x43B;&#x44E;&#x432;_2_">
					<path style="fill:#020203;" d="M11.562,12.04c-0.043-0.026-0.093-0.042-0.14-0.035c-0.045,0.007-0.089,0.034-0.12,0.067
						c-0.063,0.069-0.072,0.172-0.042,0.26c0.007,0.023,0.016,0.045,0.027,0.066c0.005,0.011,0.011,0.021,0.018,0.032l0.01,0.015
						l0.002,0.004l0,0c0,0-0.001-0.001-0.002-0.001c-0.003,0-0.003,0.001-0.003,0.003c0,0.003,0-0.007,0-0.013l0.001-0.02
						c0.001-0.026,0.003-0.052,0.008-0.078c0.008-0.052,0.027-0.106,0.067-0.146c0.02-0.02,0.051-0.031,0.079-0.024
						c0.027,0.005,0.049,0.022,0.066,0.041c-0.021-0.015-0.044-0.026-0.068-0.027c-0.024-0.001-0.044,0.01-0.057,0.029
						c-0.028,0.037-0.04,0.085-0.044,0.133c-0.002,0.024-0.002,0.049-0.002,0.074l0,0.019c0,0.007,0.002,0.009-0.001,0.025
						c-0.006,0.028-0.037,0.044-0.063,0.034c-0.007-0.002-0.013-0.006-0.018-0.011c-0.002-0.002-0.004-0.005-0.006-0.008
						l-0.003-0.004l-0.011-0.017c-0.007-0.011-0.014-0.023-0.02-0.035c-0.013-0.024-0.024-0.048-0.032-0.074
						c-0.017-0.052-0.022-0.108-0.013-0.163c0.01-0.054,0.036-0.108,0.077-0.145c0.041-0.037,0.092-0.062,0.148-0.064
						C11.476,11.979,11.526,12.004,11.562,12.04z"/>
				</g>
				<g id="&#x420;&#x43E;&#x442;_1_">
					<path style="fill:#020203;" d="M11.36,12.269c0.027,0.021,0.054,0.039,0.082,0.047c0.028,0.009,0.053,0.007,0.078-0.003
						c0.024-0.011,0.046-0.028,0.066-0.051c0.02-0.022,0.038-0.049,0.059-0.077c0.004,0.035-0.004,0.071-0.021,0.103
						c-0.017,0.032-0.046,0.062-0.084,0.075c-0.037,0.015-0.083,0.01-0.115-0.011C11.393,12.332,11.371,12.302,11.36,12.269z"/>
				</g>
				<g id="&#x433;&#x43B;&#x430;&#x437;_&#x43B;&#x435;&#x432;&#x44B;&#x439;_2_">
					<g>
						<path style="fill:#F5DD0A;" d="M11.116,11.801c-0.143-0.07-0.261-0.001-0.292,0.105c-0.036,0.124,0,0.294,0.127,0.327
							c0.146,0.038,0.235-0.042,0.262-0.174C11.248,11.882,11.163,11.819,11.116,11.801z"/>
						<path style="fill:#020203;" d="M11.116,11.801c-0.053-0.025-0.115-0.036-0.169-0.016c-0.055,0.019-0.094,0.067-0.108,0.12
							c-0.013,0.054-0.012,0.112,0.003,0.164c0.014,0.052,0.042,0.1,0.084,0.123c0.01,0.006,0.022,0.01,0.033,0.014
							c0.013,0.003,0.026,0.006,0.039,0.007c0.026,0.003,0.052,0.003,0.076-0.005c0.049-0.013,0.089-0.054,0.111-0.105
							c0.021-0.051,0.034-0.11,0.028-0.168c-0.004-0.028-0.013-0.057-0.029-0.081C11.167,11.831,11.144,11.812,11.116,11.801z
							 M11.116,11.801c0.056,0.021,0.094,0.075,0.105,0.134c0.012,0.059,0.008,0.12-0.009,0.179
							c-0.016,0.058-0.057,0.118-0.122,0.142c-0.031,0.012-0.065,0.016-0.097,0.013c-0.016-0.001-0.032-0.004-0.047-0.008
							c-0.016-0.005-0.033-0.01-0.048-0.019c-0.061-0.036-0.093-0.101-0.103-0.162c-0.011-0.062-0.003-0.125,0.018-0.183
							c0.022-0.059,0.074-0.104,0.132-0.119C11.003,11.762,11.064,11.775,11.116,11.801z"/>
					</g>
					<g>
						<path style="fill:#020203;" d="M11.093,11.909c-0.025,0.016-0.046,0.029-0.055,0.043c-0.005,0.007-0.005,0.011-0.005,0.016
							c-0.001,0.004,0,0.01,0,0.018c0.002,0.019,0.002,0.024,0.006,0.035c0.006,0.012,0.027,0.026,0.054,0.04
							c-0.021,0.023-0.054,0.035-0.092,0.021c-0.019-0.007-0.035-0.023-0.044-0.041c-0.01-0.018-0.012-0.036-0.012-0.053
							c-0.004-0.034,0.022-0.083,0.058-0.094C11.038,11.883,11.069,11.89,11.093,11.909z"/>
					</g>
				</g>
				<g id="&#x411;&#x440;&#x43E;&#x432;&#x44C;_&#x43B;&#x435;&#x432;&#x430;&#x44F;_2_">
					<path style="fill:#F5DD0E;" d="M10.599,11.467c0,0.218,0.138,0.284,0.227,0.295c0.068,0.008,0.16-0.025,0.246,0.006
						c0.085,0.031,0.137,0.095,0.137,0.095c0.041,0.037,0.085,0.051,0.118,0.002c0.033-0.049,0.035-0.134-0.05-0.187
						c-0.085-0.053-0.172-0.06-0.34-0.069c-0.062-0.003-0.107-0.005-0.173-0.018C10.713,11.58,10.662,11.56,10.599,11.467z"/>
					<path style="fill:#020203;" d="M10.599,11.467c0.006,0.068,0.022,0.137,0.065,0.189c0.041,0.051,0.103,0.083,0.167,0.087
						c0.062,0.003,0.133-0.021,0.208-0.009c0.077,0.014,0.14,0.055,0.191,0.111l-0.003-0.003c0.015,0.013,0.032,0.024,0.045,0.026
						c0.012,0.002,0.02-0.003,0.031-0.018c0.02-0.029,0.024-0.07,0.007-0.102c-0.016-0.032-0.052-0.054-0.091-0.072
						c-0.039-0.017-0.081-0.026-0.125-0.033c-0.088-0.014-0.179-0.016-0.271-0.029c-0.045-0.008-0.093-0.016-0.133-0.044
						C10.65,11.544,10.622,11.506,10.599,11.467z M10.599,11.467c0.028,0.035,0.06,0.07,0.098,0.09
						c0.038,0.021,0.084,0.024,0.128,0.029c0.089,0.007,0.181,0.003,0.273,0.012c0.046,0.005,0.094,0.013,0.139,0.032
						c0.023,0.01,0.044,0.02,0.065,0.035c0.021,0.015,0.04,0.035,0.053,0.059c0.026,0.049,0.023,0.112-0.009,0.158
						c-0.008,0.012-0.019,0.023-0.034,0.032c-0.015,0.009-0.034,0.011-0.05,0.008c-0.032-0.006-0.054-0.023-0.073-0.04l-0.001-0.001
						l-0.002-0.002c-0.04-0.045-0.098-0.085-0.157-0.097c-0.062-0.012-0.128,0.005-0.204-0.001c-0.073-0.01-0.143-0.05-0.182-0.111
						C10.605,11.608,10.595,11.535,10.599,11.467z"/>
				</g>
				<g id="&#x433;&#x43B;&#x430;&#x437;_&#x43F;&#x440;&#x430;&#x432;&#x44B;&#x439;_2_">
					<g>
						<path style="fill:#F5DD0E;" d="M11.798,11.652c-0.044,0.026-0.139,0.091-0.107,0.267c0.025,0.138,0.14,0.222,0.275,0.189
							c0.133-0.032,0.168-0.164,0.146-0.297C12.093,11.698,12.003,11.577,11.798,11.652z"/>
						<path style="fill:#020203;" d="M11.798,11.652c-0.053,0.03-0.095,0.082-0.104,0.142c-0.01,0.059,0,0.122,0.024,0.175
							c0.024,0.053,0.069,0.096,0.121,0.113c0.052,0.018,0.112,0.012,0.16-0.011c0.049-0.023,0.08-0.072,0.092-0.128
							c0.012-0.055,0.013-0.118-0.002-0.174c-0.016-0.056-0.054-0.108-0.112-0.128C11.919,11.62,11.855,11.632,11.798,11.652z
							 M11.798,11.652c0.057-0.02,0.12-0.034,0.181-0.017c0.061,0.016,0.11,0.067,0.132,0.127c0.022,0.061,0.029,0.124,0.02,0.189
							c-0.006,0.032-0.016,0.065-0.035,0.094c-0.019,0.029-0.045,0.053-0.076,0.068c-0.062,0.029-0.133,0.033-0.196,0.007
							c-0.063-0.026-0.108-0.082-0.129-0.142c-0.02-0.061-0.023-0.125-0.008-0.185C11.701,11.732,11.744,11.681,11.798,11.652z"/>
					</g>
					<g>
						<path style="fill:#020203;" d="M11.928,11.793c-0.023,0.018-0.04,0.033-0.045,0.046c-0.004,0.012-0.002,0.017-0.002,0.032
							l0.003,0.039c-0.001,0.01,0.014,0.024,0.043,0.033c-0.007,0.013-0.02,0.022-0.035,0.028c-0.015,0.004-0.037,0.003-0.054-0.008
							c-0.018-0.01-0.029-0.027-0.035-0.042c-0.007-0.016-0.01-0.029-0.011-0.046c-0.001-0.016,0.002-0.034,0.009-0.051
							c0.008-0.017,0.023-0.032,0.039-0.04C11.873,11.77,11.904,11.775,11.928,11.793z"/>
					</g>
				</g>
				<g id="&#x411;&#x440;&#x43E;&#x432;&#x44C;_&#x43F;&#x440;&#x430;&#x432;&#x430;&#x44F;_2_">
					<path style="fill:#F5DD12;" d="M12.507,11.201c-0.2,0.334-0.659,0.155-0.933,0.376c-0.255,0.186-0.084,0.424,0.091,0.188
						c0.139-0.187,0.492-0.17,0.651-0.243C12.401,11.483,12.524,11.351,12.507,11.201z"/>
					<g>
						<path style="fill:#020203;" d="M12.507,11.201c-0.027,0.05-0.063,0.095-0.109,0.129c-0.046,0.035-0.098,0.06-0.152,0.078
							c-0.109,0.035-0.223,0.045-0.333,0.065c-0.109,0.02-0.218,0.045-0.304,0.109c-0.044,0.032-0.085,0.067-0.111,0.111
							c-0.027,0.042-0.036,0.098-0.012,0.127c0.011,0.014,0.028,0.019,0.049,0.015c0.021-0.005,0.042-0.017,0.062-0.034
							c0.02-0.017,0.035-0.036,0.053-0.059c0.019-0.024,0.042-0.045,0.066-0.063c0.049-0.035,0.104-0.058,0.159-0.075
							c0.055-0.018,0.111-0.029,0.167-0.038c0.056-0.01,0.111-0.018,0.166-0.029c0.054-0.012,0.107-0.025,0.15-0.057
							C12.445,11.418,12.513,11.315,12.507,11.201z M12.507,11.201c0.004,0.027,0.004,0.057,0,0.085
							c-0.005,0.028-0.014,0.055-0.027,0.081c-0.025,0.052-0.061,0.098-0.106,0.135c-0.046,0.038-0.105,0.056-0.159,0.07
							c-0.055,0.014-0.111,0.024-0.165,0.037c-0.108,0.025-0.219,0.05-0.304,0.113c-0.021,0.016-0.04,0.034-0.055,0.054
							c-0.017,0.022-0.036,0.047-0.059,0.067c-0.023,0.02-0.051,0.038-0.085,0.047c-0.034,0.008-0.079-0.001-0.103-0.033
							c-0.024-0.031-0.028-0.069-0.024-0.101c0.004-0.033,0.017-0.062,0.034-0.089c0.033-0.053,0.08-0.091,0.127-0.125
							c0.098-0.069,0.215-0.096,0.327-0.11c0.112-0.015,0.225-0.02,0.331-0.049c0.054-0.013,0.105-0.034,0.152-0.064
							C12.435,11.288,12.475,11.248,12.507,11.201z"/>
					</g>
				</g>
			</g>
		</g>
	</g>
</g>
<g>
</g>
<g>
</g>
<g>
</g>
<g>
</g>
<g>
</g>
<g>
</g>
</svg>
